<mxfile host="app.diagrams.net" agent="Mozilla/5.0 (Windows NT 10.0; Win64; x64) AppleWebKit/537.36 (KHTML, like Gecko) Chrome/129.0.0.0 Safari/537.36" version="24.7.17">
  <diagram name="第 1 页" id="LsQWunFBqMWwRgd83rxi">
    <mxGraphModel dx="1877" dy="653" grid="1" gridSize="10" guides="1" tooltips="1" connect="1" arrows="1" fold="1" page="1" pageScale="1" pageWidth="827" pageHeight="1169" math="0" shadow="0">
      <root>
        <mxCell id="0" />
        <mxCell id="1" parent="0" />
        <mxCell id="V7YjYcM6zG58AsAOr3_9-1" value="高中地理教学系统" style="whiteSpace=wrap;strokeWidth=2;" parent="1" vertex="1">
          <mxGeometry x="580" y="20" width="143" height="33" as="geometry" />
        </mxCell>
        <mxCell id="V7YjYcM6zG58AsAOr3_9-2" value="用户界面层" style="whiteSpace=wrap;strokeWidth=2;" parent="1" vertex="1">
          <mxGeometry x="547" y="205" width="95" height="33" as="geometry" />
        </mxCell>
        <mxCell id="V7YjYcM6zG58AsAOr3_9-3" value="功能模块层" style="whiteSpace=wrap;strokeWidth=2;" parent="1" vertex="1">
          <mxGeometry x="122" y="594" width="96" height="33" as="geometry" />
        </mxCell>
        <mxCell id="V7YjYcM6zG58AsAOr3_9-4" value="数据处理层" style="whiteSpace=wrap;strokeWidth=2;" parent="1" vertex="1">
          <mxGeometry x="1192" y="122" width="96" height="33" as="geometry" />
        </mxCell>
        <mxCell id="V7YjYcM6zG58AsAOr3_9-5" value="技术支撑层" style="whiteSpace=wrap;strokeWidth=2;" parent="1" vertex="1">
          <mxGeometry x="318" y="205" width="96" height="33" as="geometry" />
        </mxCell>
        <mxCell id="V7YjYcM6zG58AsAOr3_9-6" value="交互和反馈机制" style="whiteSpace=wrap;strokeWidth=2;" parent="1" vertex="1">
          <mxGeometry x="862" y="122" width="127" height="33" as="geometry" />
        </mxCell>
        <mxCell id="V7YjYcM6zG58AsAOr3_9-7" value="登录界面" style="whiteSpace=wrap;strokeWidth=2;" parent="1" vertex="1">
          <mxGeometry x="607" y="594" width="80" height="33" as="geometry" />
        </mxCell>
        <mxCell id="V7YjYcM6zG58AsAOr3_9-8" value="主界面" style="whiteSpace=wrap;strokeWidth=2;" parent="1" vertex="1">
          <mxGeometry x="513" y="511" width="63" height="33" as="geometry" />
        </mxCell>
        <mxCell id="V7YjYcM6zG58AsAOr3_9-9" value="三维地球界面" style="whiteSpace=wrap;strokeWidth=2;" parent="1" vertex="1">
          <mxGeometry x="216" y="307" width="111" height="33" as="geometry" />
        </mxCell>
        <mxCell id="V7YjYcM6zG58AsAOr3_9-10" value="场景考察界面" style="whiteSpace=wrap;strokeWidth=2;" parent="1" vertex="1">
          <mxGeometry x="229" y="511" width="111" height="33" as="geometry" />
        </mxCell>
        <mxCell id="V7YjYcM6zG58AsAOr3_9-11" value="实验操作界面" style="whiteSpace=wrap;strokeWidth=2;" parent="1" vertex="1">
          <mxGeometry x="710" y="511" width="111" height="33" as="geometry" />
        </mxCell>
        <mxCell id="V7YjYcM6zG58AsAOr3_9-12" value="测试评估界面" style="whiteSpace=wrap;strokeWidth=2;" parent="1" vertex="1">
          <mxGeometry x="1101" y="307" width="112" height="33" as="geometry" />
        </mxCell>
        <mxCell id="V7YjYcM6zG58AsAOr3_9-13" value="互动学习功能" style="whiteSpace=wrap;strokeWidth=2;" parent="1" vertex="1">
          <mxGeometry x="617" y="696" width="111" height="33" as="geometry" />
        </mxCell>
        <mxCell id="V7YjYcM6zG58AsAOr3_9-14" value="实验模拟功能" style="whiteSpace=wrap;strokeWidth=2;" parent="1" vertex="1">
          <mxGeometry x="453" y="779" width="111" height="33" as="geometry" />
        </mxCell>
        <mxCell id="V7YjYcM6zG58AsAOr3_9-15" value="测试评估功能" style="whiteSpace=wrap;strokeWidth=2;" parent="1" vertex="1">
          <mxGeometry x="138" y="863" width="112" height="33" as="geometry" />
        </mxCell>
        <mxCell id="V7YjYcM6zG58AsAOr3_9-16" value="MySQL数据库" style="whiteSpace=wrap;strokeWidth=2;" parent="1" vertex="1">
          <mxGeometry x="1137" y="409" width="110" height="33" as="geometry" />
        </mxCell>
        <mxCell id="V7YjYcM6zG58AsAOr3_9-17" value="数据管理" style="whiteSpace=wrap;strokeWidth=2;" parent="1" vertex="1">
          <mxGeometry x="1263" y="307" width="81" height="33" as="geometry" />
        </mxCell>
        <mxCell id="V7YjYcM6zG58AsAOr3_9-18" value="数据加密" style="whiteSpace=wrap;strokeWidth=2;" parent="1" vertex="1">
          <mxGeometry x="1263" y="205" width="80" height="33" as="geometry" />
        </mxCell>
        <mxCell id="V7YjYcM6zG58AsAOr3_9-19" value="虚幻引擎" style="whiteSpace=wrap;strokeWidth=2;" parent="1" vertex="1">
          <mxGeometry x="282" y="409" width="80" height="33" as="geometry" />
        </mxCell>
        <mxCell id="V7YjYcM6zG58AsAOr3_9-20" value="C++编程" style="whiteSpace=wrap;strokeWidth=2;" parent="1" vertex="1">
          <mxGeometry x="826" y="594" width="74" height="33" as="geometry" />
        </mxCell>
        <mxCell id="V7YjYcM6zG58AsAOr3_9-21" value="物理引擎" style="whiteSpace=wrap;strokeWidth=2;" parent="1" vertex="1">
          <mxGeometry x="871" y="511" width="80" height="33" as="geometry" />
        </mxCell>
        <mxCell id="V7YjYcM6zG58AsAOr3_9-22" value="Maya建模" style="whiteSpace=wrap;strokeWidth=2;" parent="1" vertex="1">
          <mxGeometry x="377" y="307" width="85" height="33" as="geometry" />
        </mxCell>
        <mxCell id="V7YjYcM6zG58AsAOr3_9-23" value="用户操作" style="whiteSpace=wrap;strokeWidth=2;" parent="1" vertex="1">
          <mxGeometry x="692" y="205" width="79" height="33" as="geometry" />
        </mxCell>
        <mxCell id="V7YjYcM6zG58AsAOr3_9-24" value="系统响应" style="whiteSpace=wrap;strokeWidth=2;" parent="1" vertex="1">
          <mxGeometry x="821" y="205" width="79" height="33" as="geometry" />
        </mxCell>
        <mxCell id="V7YjYcM6zG58AsAOr3_9-25" value="反馈展示" style="whiteSpace=wrap;strokeWidth=2;" parent="1" vertex="1">
          <mxGeometry x="950" y="205" width="81" height="33" as="geometry" />
        </mxCell>
        <mxCell id="V7YjYcM6zG58AsAOr3_9-26" value="用户交互" style="curved=1;startArrow=none;endArrow=block;exitX=0.37;exitY=1.01;entryX=0.5;entryY=0.01;rounded=0;" parent="1" source="V7YjYcM6zG58AsAOr3_9-1" target="V7YjYcM6zG58AsAOr3_9-2" edge="1">
          <mxGeometry relative="1" as="geometry">
            <Array as="points">
              <mxPoint x="595" y="88" />
            </Array>
          </mxGeometry>
        </mxCell>
        <mxCell id="V7YjYcM6zG58AsAOr3_9-27" value="功能实现" style="curved=1;startArrow=none;endArrow=block;exitX=0;exitY=0.68;entryX=0;entryY=0.1;rounded=0;" parent="1" source="V7YjYcM6zG58AsAOr3_9-1" target="V7YjYcM6zG58AsAOr3_9-3" edge="1">
          <mxGeometry relative="1" as="geometry">
            <Array as="points">
              <mxPoint x="20" y="88" />
              <mxPoint x="20" y="569" />
            </Array>
          </mxGeometry>
        </mxCell>
        <mxCell id="V7YjYcM6zG58AsAOr3_9-28" value="数据管理" style="curved=1;startArrow=none;endArrow=block;exitX=1;exitY=0.69;entryX=0.5;entryY=-0.01;rounded=0;" parent="1" source="V7YjYcM6zG58AsAOr3_9-1" target="V7YjYcM6zG58AsAOr3_9-4" edge="1">
          <mxGeometry relative="1" as="geometry">
            <Array as="points">
              <mxPoint x="1240" y="88" />
            </Array>
          </mxGeometry>
        </mxCell>
        <mxCell id="V7YjYcM6zG58AsAOr3_9-29" value="技术支撑" style="curved=1;startArrow=none;endArrow=block;exitX=0;exitY=0.89;entryX=0.5;entryY=0.01;rounded=0;" parent="1" source="V7YjYcM6zG58AsAOr3_9-1" target="V7YjYcM6zG58AsAOr3_9-5" edge="1">
          <mxGeometry relative="1" as="geometry">
            <Array as="points">
              <mxPoint x="366" y="88" />
            </Array>
          </mxGeometry>
        </mxCell>
        <mxCell id="V7YjYcM6zG58AsAOr3_9-30" value="操作反馈" style="curved=1;startArrow=none;endArrow=block;exitX=1;exitY=0.91;entryX=0.5;entryY=-0.01;rounded=0;" parent="1" source="V7YjYcM6zG58AsAOr3_9-1" target="V7YjYcM6zG58AsAOr3_9-6" edge="1">
          <mxGeometry relative="1" as="geometry">
            <Array as="points">
              <mxPoint x="926" y="88" />
            </Array>
          </mxGeometry>
        </mxCell>
        <mxCell id="V7YjYcM6zG58AsAOr3_9-31" value="" style="curved=1;startArrow=none;endArrow=block;exitX=0.68;exitY=1.02;entryX=0.49;entryY=0;rounded=0;" parent="1" source="V7YjYcM6zG58AsAOr3_9-2" target="V7YjYcM6zG58AsAOr3_9-7" edge="1">
          <mxGeometry relative="1" as="geometry">
            <Array as="points">
              <mxPoint x="647" y="273" />
            </Array>
          </mxGeometry>
        </mxCell>
        <mxCell id="V7YjYcM6zG58AsAOr3_9-32" value="" style="curved=1;startArrow=none;endArrow=block;exitX=0.33;exitY=1.02;entryX=0.5;entryY=-0.01;rounded=0;" parent="1" source="V7YjYcM6zG58AsAOr3_9-2" target="V7YjYcM6zG58AsAOr3_9-8" edge="1">
          <mxGeometry relative="1" as="geometry">
            <Array as="points">
              <mxPoint x="544" y="273" />
            </Array>
          </mxGeometry>
        </mxCell>
        <mxCell id="V7YjYcM6zG58AsAOr3_9-33" value="" style="curved=1;startArrow=none;endArrow=block;exitX=0;exitY=0.74;entryX=0.5;entryY=0;rounded=0;" parent="1" source="V7YjYcM6zG58AsAOr3_9-2" target="V7YjYcM6zG58AsAOr3_9-9" edge="1">
          <mxGeometry relative="1" as="geometry">
            <Array as="points">
              <mxPoint x="271" y="273" />
            </Array>
          </mxGeometry>
        </mxCell>
        <mxCell id="V7YjYcM6zG58AsAOr3_9-34" value="" style="curved=1;startArrow=none;endArrow=block;exitX=0;exitY=0.67;entryX=0.06;entryY=-0.01;rounded=0;" parent="1" source="V7YjYcM6zG58AsAOr3_9-2" target="V7YjYcM6zG58AsAOr3_9-10" edge="1">
          <mxGeometry relative="1" as="geometry">
            <Array as="points">
              <mxPoint x="137" y="273" />
              <mxPoint x="137" y="476" />
            </Array>
          </mxGeometry>
        </mxCell>
        <mxCell id="V7YjYcM6zG58AsAOr3_9-35" value="" style="curved=1;startArrow=none;endArrow=block;exitX=1;exitY=0.94;entryX=0.5;entryY=-0.01;rounded=0;" parent="1" source="V7YjYcM6zG58AsAOr3_9-2" target="V7YjYcM6zG58AsAOr3_9-11" edge="1">
          <mxGeometry relative="1" as="geometry">
            <Array as="points">
              <mxPoint x="765" y="273" />
            </Array>
          </mxGeometry>
        </mxCell>
        <mxCell id="V7YjYcM6zG58AsAOr3_9-36" value="" style="curved=1;startArrow=none;endArrow=block;exitX=1;exitY=0.64;entryX=0.5;entryY=0;rounded=0;" parent="1" source="V7YjYcM6zG58AsAOr3_9-2" target="V7YjYcM6zG58AsAOr3_9-12" edge="1">
          <mxGeometry relative="1" as="geometry">
            <Array as="points">
              <mxPoint x="1157" y="273" />
            </Array>
          </mxGeometry>
        </mxCell>
        <mxCell id="V7YjYcM6zG58AsAOr3_9-37" value="" style="curved=1;startArrow=none;endArrow=block;exitX=1;exitY=0.69;entryX=0.22;entryY=-0.01;rounded=0;" parent="1" source="V7YjYcM6zG58AsAOr3_9-3" target="V7YjYcM6zG58AsAOr3_9-13" edge="1">
          <mxGeometry relative="1" as="geometry">
            <Array as="points">
              <mxPoint x="578" y="662" />
            </Array>
          </mxGeometry>
        </mxCell>
        <mxCell id="V7YjYcM6zG58AsAOr3_9-38" value="" style="curved=1;startArrow=none;endArrow=block;exitX=0.97;exitY=1.01;entryX=0;entryY=0.16;rounded=0;" parent="1" source="V7YjYcM6zG58AsAOr3_9-3" target="V7YjYcM6zG58AsAOr3_9-14" edge="1">
          <mxGeometry relative="1" as="geometry">
            <Array as="points">
              <mxPoint x="309" y="662" />
              <mxPoint x="309" y="754" />
            </Array>
          </mxGeometry>
        </mxCell>
        <mxCell id="V7YjYcM6zG58AsAOr3_9-39" value="" style="curved=1;startArrow=none;endArrow=block;exitX=0.27;exitY=1.01;entryX=0.18;entryY=-0.01;rounded=0;" parent="1" source="V7YjYcM6zG58AsAOr3_9-3" target="V7YjYcM6zG58AsAOr3_9-15" edge="1">
          <mxGeometry relative="1" as="geometry">
            <Array as="points">
              <mxPoint x="105" y="662" />
              <mxPoint x="105" y="838" />
            </Array>
          </mxGeometry>
        </mxCell>
        <mxCell id="V7YjYcM6zG58AsAOr3_9-40" value="" style="curved=1;startArrow=none;endArrow=block;exitX=0;exitY=0.85;entryX=0.12;entryY=-0.01;rounded=0;" parent="1" source="V7YjYcM6zG58AsAOr3_9-4" target="V7YjYcM6zG58AsAOr3_9-16" edge="1">
          <mxGeometry relative="1" as="geometry">
            <Array as="points">
              <mxPoint x="1066" y="180" />
              <mxPoint x="1066" y="375" />
            </Array>
          </mxGeometry>
        </mxCell>
        <mxCell id="V7YjYcM6zG58AsAOr3_9-41" value="" style="curved=1;startArrow=none;endArrow=block;exitX=0.34;exitY=1.01;entryX=0.09;entryY=0;rounded=0;" parent="1" source="V7YjYcM6zG58AsAOr3_9-4" target="V7YjYcM6zG58AsAOr3_9-17" edge="1">
          <mxGeometry relative="1" as="geometry">
            <Array as="points">
              <mxPoint x="1202" y="180" />
              <mxPoint x="1202" y="273" />
            </Array>
          </mxGeometry>
        </mxCell>
        <mxCell id="V7YjYcM6zG58AsAOr3_9-42" value="" style="curved=1;startArrow=none;endArrow=block;exitX=0.76;exitY=1.01;entryX=0.5;entryY=0.01;rounded=0;" parent="1" source="V7YjYcM6zG58AsAOr3_9-4" target="V7YjYcM6zG58AsAOr3_9-18" edge="1">
          <mxGeometry relative="1" as="geometry">
            <Array as="points">
              <mxPoint x="1303" y="180" />
            </Array>
          </mxGeometry>
        </mxCell>
        <mxCell id="V7YjYcM6zG58AsAOr3_9-43" value="" style="curved=1;startArrow=none;endArrow=block;exitX=0;exitY=0.91;entryX=0;entryY=0.06;rounded=0;" parent="1" source="V7YjYcM6zG58AsAOr3_9-5" target="V7YjYcM6zG58AsAOr3_9-19" edge="1">
          <mxGeometry relative="1" as="geometry">
            <Array as="points">
              <mxPoint x="181" y="273" />
              <mxPoint x="181" y="375" />
            </Array>
          </mxGeometry>
        </mxCell>
        <mxCell id="V7YjYcM6zG58AsAOr3_9-44" value="" style="curved=1;startArrow=none;endArrow=block;exitX=1;exitY=0.75;entryX=0;entryY=0.26;rounded=0;" parent="1" source="V7YjYcM6zG58AsAOr3_9-5" target="V7YjYcM6zG58AsAOr3_9-20" edge="1">
          <mxGeometry relative="1" as="geometry">
            <Array as="points">
              <mxPoint x="675" y="273" />
              <mxPoint x="675" y="569" />
            </Array>
          </mxGeometry>
        </mxCell>
        <mxCell id="V7YjYcM6zG58AsAOr3_9-45" value="" style="curved=1;startArrow=none;endArrow=block;exitX=1;exitY=0.67;entryX=0.24;entryY=-0.01;rounded=0;" parent="1" source="V7YjYcM6zG58AsAOr3_9-5" target="V7YjYcM6zG58AsAOr3_9-21" edge="1">
          <mxGeometry relative="1" as="geometry">
            <Array as="points">
              <mxPoint x="848" y="273" />
              <mxPoint x="848" y="476" />
            </Array>
          </mxGeometry>
        </mxCell>
        <mxCell id="V7YjYcM6zG58AsAOr3_9-46" value="" style="curved=1;startArrow=none;endArrow=block;exitX=0.68;exitY=1.02;entryX=0.5;entryY=0;rounded=0;" parent="1" source="V7YjYcM6zG58AsAOr3_9-5" target="V7YjYcM6zG58AsAOr3_9-22" edge="1">
          <mxGeometry relative="1" as="geometry">
            <Array as="points">
              <mxPoint x="419" y="273" />
            </Array>
          </mxGeometry>
        </mxCell>
        <mxCell id="V7YjYcM6zG58AsAOr3_9-47" value="" style="curved=1;startArrow=none;endArrow=block;exitX=0;exitY=0.91;entryX=0.5;entryY=0.01;rounded=0;" parent="1" source="V7YjYcM6zG58AsAOr3_9-6" target="V7YjYcM6zG58AsAOr3_9-23" edge="1">
          <mxGeometry relative="1" as="geometry">
            <Array as="points">
              <mxPoint x="732" y="180" />
            </Array>
          </mxGeometry>
        </mxCell>
        <mxCell id="V7YjYcM6zG58AsAOr3_9-48" value="" style="curved=1;startArrow=none;endArrow=block;exitX=0.3;exitY=1.01;entryX=0.5;entryY=0.01;rounded=0;" parent="1" source="V7YjYcM6zG58AsAOr3_9-6" target="V7YjYcM6zG58AsAOr3_9-24" edge="1">
          <mxGeometry relative="1" as="geometry">
            <Array as="points">
              <mxPoint x="861" y="180" />
            </Array>
          </mxGeometry>
        </mxCell>
        <mxCell id="V7YjYcM6zG58AsAOr3_9-49" value="" style="curved=1;startArrow=none;endArrow=block;exitX=0.71;exitY=1.01;entryX=0.5;entryY=0.01;rounded=0;" parent="1" source="V7YjYcM6zG58AsAOr3_9-6" target="V7YjYcM6zG58AsAOr3_9-25" edge="1">
          <mxGeometry relative="1" as="geometry">
            <Array as="points">
              <mxPoint x="990" y="180" />
            </Array>
          </mxGeometry>
        </mxCell>
        <mxCell id="V7YjYcM6zG58AsAOr3_9-50" value="" style="curved=1;startArrow=none;endArrow=block;exitX=0.5;exitY=1.01;entryX=1;entryY=0.09;rounded=0;" parent="1" source="V7YjYcM6zG58AsAOr3_9-13" target="V7YjYcM6zG58AsAOr3_9-14" edge="1">
          <mxGeometry relative="1" as="geometry">
            <Array as="points">
              <mxPoint x="673" y="754" />
            </Array>
          </mxGeometry>
        </mxCell>
        <mxCell id="V7YjYcM6zG58AsAOr3_9-51" value="" style="curved=1;startArrow=none;endArrow=block;exitX=0.5;exitY=1.02;entryX=0.99;entryY=0.27;rounded=0;" parent="1" source="V7YjYcM6zG58AsAOr3_9-14" target="V7YjYcM6zG58AsAOr3_9-15" edge="1">
          <mxGeometry relative="1" as="geometry">
            <Array as="points">
              <mxPoint x="509" y="838" />
            </Array>
          </mxGeometry>
        </mxCell>
        <mxCell id="V7YjYcM6zG58AsAOr3_9-52" value="" style="curved=1;startArrow=none;endArrow=block;exitX=0.49;exitY=1.01;entryX=0.43;entryY=-0.01;rounded=0;" parent="1" source="V7YjYcM6zG58AsAOr3_9-7" target="V7YjYcM6zG58AsAOr3_9-13" edge="1">
          <mxGeometry relative="1" as="geometry">
            <Array as="points">
              <mxPoint x="647" y="662" />
            </Array>
          </mxGeometry>
        </mxCell>
        <mxCell id="V7YjYcM6zG58AsAOr3_9-53" value="" style="curved=1;startArrow=none;endArrow=block;exitX=0.5;exitY=1;entryX=1;entryY=0.34;rounded=0;" parent="1" source="V7YjYcM6zG58AsAOr3_9-8" target="V7YjYcM6zG58AsAOr3_9-3" edge="1">
          <mxGeometry relative="1" as="geometry">
            <Array as="points">
              <mxPoint x="544" y="569" />
            </Array>
          </mxGeometry>
        </mxCell>
        <mxCell id="V7YjYcM6zG58AsAOr3_9-54" value="" style="curved=1;startArrow=none;endArrow=block;exitX=0.5;exitY=1.01;entryX=0.29;entryY=-0.01;rounded=0;" parent="1" source="V7YjYcM6zG58AsAOr3_9-9" target="V7YjYcM6zG58AsAOr3_9-19" edge="1">
          <mxGeometry relative="1" as="geometry">
            <Array as="points">
              <mxPoint x="271" y="375" />
            </Array>
          </mxGeometry>
        </mxCell>
        <mxCell id="V7YjYcM6zG58AsAOr3_9-55" value="" style="curved=1;startArrow=none;endArrow=block;exitX=1;exitY=0.02;entryX=1;entryY=0.93;rounded=0;" parent="1" source="V7YjYcM6zG58AsAOr3_9-10" target="V7YjYcM6zG58AsAOr3_9-19" edge="1">
          <mxGeometry relative="1" as="geometry">
            <Array as="points">
              <mxPoint x="466" y="476" />
            </Array>
          </mxGeometry>
        </mxCell>
        <mxCell id="V7YjYcM6zG58AsAOr3_9-56" value="" style="curved=1;startArrow=none;endArrow=block;exitX=0.5;exitY=1;entryX=0;entryY=0.03;rounded=0;" parent="1" source="V7YjYcM6zG58AsAOr3_9-11" target="V7YjYcM6zG58AsAOr3_9-20" edge="1">
          <mxGeometry relative="1" as="geometry">
            <Array as="points">
              <mxPoint x="765" y="569" />
            </Array>
          </mxGeometry>
        </mxCell>
        <mxCell id="V7YjYcM6zG58AsAOr3_9-57" value="" style="curved=1;startArrow=none;endArrow=block;exitX=0.5;exitY=1.01;entryX=0.39;entryY=-0.01;rounded=0;" parent="1" source="V7YjYcM6zG58AsAOr3_9-12" target="V7YjYcM6zG58AsAOr3_9-16" edge="1">
          <mxGeometry relative="1" as="geometry">
            <Array as="points">
              <mxPoint x="1157" y="375" />
            </Array>
          </mxGeometry>
        </mxCell>
        <mxCell id="V7YjYcM6zG58AsAOr3_9-58" value="渲染" style="curved=1;startArrow=none;endArrow=block;exitX=1;exitY=0.05;entryX=1;entryY=0.97;rounded=0;" parent="1" source="V7YjYcM6zG58AsAOr3_9-19" target="V7YjYcM6zG58AsAOr3_9-9" edge="1">
          <mxGeometry relative="1" as="geometry">
            <Array as="points">
              <mxPoint x="458" y="375" />
            </Array>
          </mxGeometry>
        </mxCell>
        <mxCell id="V7YjYcM6zG58AsAOr3_9-59" value="交互" style="curved=1;startArrow=none;endArrow=block;exitX=0;exitY=0.98;entryX=0.23;entryY=-0.01;rounded=0;" parent="1" source="V7YjYcM6zG58AsAOr3_9-19" target="V7YjYcM6zG58AsAOr3_9-10" edge="1">
          <mxGeometry relative="1" as="geometry">
            <Array as="points">
              <mxPoint x="193" y="476" />
            </Array>
          </mxGeometry>
        </mxCell>
        <mxCell id="V7YjYcM6zG58AsAOr3_9-60" value="逻辑处理" style="curved=1;startArrow=none;endArrow=block;exitX=0;exitY=0.96;entryX=0.69;entryY=-0.01;rounded=0;" parent="1" source="V7YjYcM6zG58AsAOr3_9-20" target="V7YjYcM6zG58AsAOr3_9-13" edge="1">
          <mxGeometry relative="1" as="geometry">
            <Array as="points">
              <mxPoint x="736" y="662" />
            </Array>
          </mxGeometry>
        </mxCell>
        <mxCell id="V7YjYcM6zG58AsAOr3_9-61" value="逻辑处理" style="curved=1;startArrow=none;endArrow=block;exitX=0.74;exitY=1.01;entryX=1;entryY=0.34;rounded=0;" parent="1" source="V7YjYcM6zG58AsAOr3_9-20" target="V7YjYcM6zG58AsAOr3_9-14" edge="1">
          <mxGeometry relative="1" as="geometry">
            <Array as="points">
              <mxPoint x="916" y="662" />
              <mxPoint x="916" y="754" />
            </Array>
          </mxGeometry>
        </mxCell>
        <mxCell id="V7YjYcM6zG58AsAOr3_9-62" value="" style="curved=1;startArrow=none;endArrow=block;exitX=0.5;exitY=1;entryX=0.76;entryY=0;rounded=0;" parent="1" source="V7YjYcM6zG58AsAOr3_9-21" target="V7YjYcM6zG58AsAOr3_9-20" edge="1">
          <mxGeometry relative="1" as="geometry">
            <Array as="points">
              <mxPoint x="911" y="569" />
            </Array>
          </mxGeometry>
        </mxCell>
        <mxCell id="V7YjYcM6zG58AsAOr3_9-63" value="" style="curved=1;startArrow=none;endArrow=block;exitX=0.5;exitY=1.01;entryX=0.9;entryY=-0.01;rounded=0;" parent="1" source="V7YjYcM6zG58AsAOr3_9-22" target="V7YjYcM6zG58AsAOr3_9-19" edge="1">
          <mxGeometry relative="1" as="geometry">
            <Array as="points">
              <mxPoint x="419" y="375" />
            </Array>
          </mxGeometry>
        </mxCell>
        <mxCell id="V7YjYcM6zG58AsAOr3_9-64" value="存储教学资源" style="curved=1;startArrow=none;endArrow=block;exitX=0.6;exitY=1.01;entryX=1.01;entryY=0.38;rounded=0;" parent="1" source="V7YjYcM6zG58AsAOr3_9-16" target="V7YjYcM6zG58AsAOr3_9-20" edge="1">
          <mxGeometry relative="1" as="geometry">
            <Array as="points">
              <mxPoint x="1226" y="476" />
              <mxPoint x="1226" y="569" />
            </Array>
          </mxGeometry>
        </mxCell>
        <mxCell id="V7YjYcM6zG58AsAOr3_9-65" value="存储用户数据" style="curved=1;startArrow=none;endArrow=block;exitX=0;exitY=0.87;entryX=0.72;entryY=-0.01;rounded=0;" parent="1" source="V7YjYcM6zG58AsAOr3_9-16" target="V7YjYcM6zG58AsAOr3_9-21" edge="1">
          <mxGeometry relative="1" as="geometry">
            <Array as="points">
              <mxPoint x="966" y="476" />
            </Array>
          </mxGeometry>
        </mxCell>
        <mxCell id="V7YjYcM6zG58AsAOr3_9-66" value="管理数据流" style="curved=1;startArrow=none;endArrow=block;exitX=0.49;exitY=1.01;entryX=0.83;entryY=-0.01;rounded=0;" parent="1" source="V7YjYcM6zG58AsAOr3_9-17" target="V7YjYcM6zG58AsAOr3_9-16" edge="1">
          <mxGeometry relative="1" as="geometry">
            <Array as="points">
              <mxPoint x="1303" y="375" />
            </Array>
          </mxGeometry>
        </mxCell>
        <mxCell id="V7YjYcM6zG58AsAOr3_9-67" value="保护数据安全" style="curved=1;startArrow=none;endArrow=block;exitX=0.5;exitY=1.02;entryX=0.49;entryY=0;rounded=0;" parent="1" source="V7YjYcM6zG58AsAOr3_9-18" target="V7YjYcM6zG58AsAOr3_9-17" edge="1">
          <mxGeometry relative="1" as="geometry">
            <Array as="points" />
          </mxGeometry>
        </mxCell>
        <mxCell id="PtCqeZdLzLH2RcQCz3rv-1" value="" style="shape=image;verticalLabelPosition=bottom;labelBackgroundColor=default;verticalAlign=top;aspect=fixed;imageAspect=0;image=data:image/png,iVBORw0KGgoAAAANSUhEUgAAArIAAAL7CAIAAACOTPFzAAAgAElEQVR4Aey9e5QVxbk23v+YlbM0rgQ/WfrBUhAWP4wujBFITlbMOUpIVs4HEQ6elSgCkRGGi1HBKDFgEEI0x0QTvLJBQQQVjUaEgwwYHbmOwDBcRGAGGEBgGC7DcBmuMzK/U1Vd1dXVl927b7v37mevvWaqu6ur337qqbeeequ6t9aKDxAAAkAACAABIAAEKAIacAACQAAIAAEgAASAAEMAsgBMAAJAAAgAASAABHQEIAtABSAABIAAEAACQEBHALIAVAACQAAIAAEgAAR0BCALQAUgAASAABAAAkBARwCyAFQAAkAACAABIAAEdAQgC0AFIAAEgAAQAAJAQEcAsgBUAAJAAAgAASAABHQEIAtABSAABIAAEAACQEBHALIAVAACQAAIAAEgAAR0BCALQAUgAASAABAAAkBARwCyAFQAAkAACAABIAAEdAQgC0AFIAAEgAAQAAJAQEcAsgBUAAJAAAgAASAABHQEIAtABSAABIAAEAACQEBHALIAVAACQAAIAAEgAAR0BCALQAUgAASAABAAAkBARwCyAFQAAkAACAABIAAEdAQgC0AFIAAEgAAQAAJAQEcAsgBUAAJAAAgAASAABHQEIAtABSAABIAAEAACQEBHALIAVAACQAAIAAEgAAR0BCALQAUgAASAABAAAkBARwCyAFQAAkAACAABIAAEdAQgC0AFHYG1a9dW4AMEgEBaEYArBAIMAcgCMEFHYO3atZ2u/laX/9sGXyAABNKGQOdr28EVAgGGAGQBmKAjwGRBw8Sb8QUCQCBVCPxz2P8HWYCeQCAAWSCgSHsCsiBVPQFuFggIBCAL0u79zfcPWWDGI8VbkAXCSyIBBFKFAGRBih2/za1DFtiAks5dkAWp6glws0BAIABZkE6f73TXkAVOyKRuP2SB8JJIAIFUIQBZkDp373rDkAWu8KTpIGRBqnoC3CwQEAhAFqTJ02e/V8iC7BilJAdkgfCSSACBVCEAWZASJ+/xNiELPAJV/NlSIQvG31g24OrJA7uF5vR/3Wly73aTe3eqyu3Bzptqx3WrHXdTFjMeuX7+kM7zR4dnbW5GRv6oau3ILhWPRX6VLCDrmNxUO6ZbnSs+24Z0mP9gQqwN2QzIguL377ncIWRBLmgVdd40yIK6e6/qpmnaVVeXjQ/JsZZcrZHP1WWuPYraM43p0EfTtG932OZ+Fiv8ti7q6e5nhXWUGel29W7zvn9pn+7ty8ZlA3Nc16e7tyszK4Dyn13aVtO6/aiLbWdce9eVt/bsEFw01BH51W3b6C5EYP3imsm92837tZ21j3S8R9O0NlfOe8Tu6MSbq/peTuq5fbvysOBNUjmQBUXt2nO+OciCnCEr1hPSIAsaJnab/R3i3nvfcUM4fW1eZQHr82jggXR+8rdu4o2Zb1PF4uFPnwE32qCRVRaM7zxa07TLskqim8p7XappWttuHUwxlce6jL1K07RLSu6yhEMe7HDnZcTuHr27KoaxW64q7Uy6efalnT2N2VxV8u1v3Hod+Xahp9veep/+NlXPev1ut9lrFGpD18ntqUlueewlhXILCdyELChWr+7vviAL/OFWhGcVgSwou822I/C5c3yJBy8foiwYT/t1eUidJVrQZbzjnX0zM4bJgku6dNB7yluv+0aPNuSEa9sbe25te4mmabnIghvnD+i87XGKTMnVbTVN+0Fn2+G+ufO7IdONXKiHuU+tG9SWlHDZt2aPkaB+rMt42gGrMoIMr71qnbZt9Xvs0/0qqhjaZwZSGVF6Q62MMBuyj+88lsiIb2ZkM6yj+dJ2PbRLbv1+x6qwQk3WS+RpD2RBETr0ALcEWRAAvOI6tQhkQfnPpA6PjhrZ2NHf36eHSX2Vk78OTxZsG/BN0mnLQfsssqDr0+Ie23+NDMd5X3jrdW3nPcx6UFNXx2STLHfYRQ1ZwFYzsFH4f111q6Zp323Px+XX1068edt/fautprX9bqfaiTeX//RfNE2zGevbYqUHAC65c4A8WO82rzuRC22/34lrC11AaO2vViYdmM6ouqsd7ebbTf0FjxYM6Vo1rlvtrzuP70JiD717dam1NcB5Z9UdZIKgx095ZEKvU0fNZXcga8jEA5ecLTRrrPCLgiwoLl8e9G4gC4IiWDTnF4EsiNp72pQfvyx4/KaqUtJDm4yhZhi9OznqSxa49YhXl7Gu/TI2Ad91MpkC+Fbm16bJCzGRUcciCpKdtXdd2eXb7cqUyfsxnZ4eIN9Ot/k/vNRJE5huWS55WPs+NBDStkPb2barAsddXzbaYYEnCxVc1na+iCK4gWAnCcg+yIKicYS4kVbIApBAR6DYZMG4LlPJMwI5fW0eKNh2V1u3YAMdpmva13qIgbtNou28h829uN2SwyzRgvHdKoZ0mNz9cjprbumEwpIFbtGCTpPJYoVLx5fQ/rW0HVm86fyhMYkb5pnwv3r8bV6qo+3o719trjibetElwuM3zvvRN8hMhHZpiUleGIDX6qLh0pK75ECFnoGtKhCKqnaMdZkFXVXQ5vKSX9ic7qRUCms/ogXoBmQEIAtkNFKdLjZZwLpe537L7oilu514s95b2+X2vM8UyScdRk6yoPMVJV2+Tns+cUGLnY6y4F/u/KHRE5d0JiX07m7sGduNTASITtHUmZmWHN5UdhtZNigi7WwGQS5qcne6Vr/zlaxHpwv+XVY/iHvxkrDcLw0VbBvSjgUJrv12u/mK8GKxhMdvnN/rcgbdtd9uX259YmJMR7K2UTxf8Einksu0tm2vnC2VVv5TcuPWAEZdEa0wgCxIteu33DxkgQWStO4oTlmQ9SFAPRbNOjCb7keXBT/sJMLjpsRAEknXtKvmmR8E4Hk6jSVHdVlgLH3oQLv5y76uxyG+32mb0B9kbcFNtaM7Z3pf2ZuuB6Tla9e2v2L0HR3Lx3SmBVrsdJQF7Owsf7PKgqoBdEmB8SgBm0FoO1/uGlnsXV4bMZGh+o2x/yXWAeSaaE+eG7SE6OvGdJ78bbqcosMVTw+xju9vbnj8pm2lHUZ3IAsXtMu+Mdp+oM9WNvzL2Hv1+YXy3kQkte1OVk4whVQ37OoepIhLxw+T5iDGdSVXd1j9YJJWvJyE74QsSKvXt79vyAJ7XFK4F7LA2v00mHprIy5teHnWF1r6LZ6B9Yu6LHB8UIJqF11/tPm6+nDddztUiWnvhzveaddNNjjKgm9OHWnM/c/7ITl57EBjT0Vfss5RlwX6vZA8Lp/xJTfXDbmKDMEVyUVPv7WvHGk33T7HxA5Gx+7TItce7HCPPnGjaf/nm6PZrMQPrtAFFtNbkvU9enaosAYJ6OXY8kntxmsqxnWrffj6soHtyMskuIYj1urPRCjLJMm6jdl2D1b4usGc0IgqM2RBCh2+yy1DFriAk65DxSkLrvrWWNP0thE/N89eX9mbdAmWUXiossDoNsyTCNuGtDNNE1z29d7d22WGXF87iIYi5PG3+USjQGdZID90l+VJhGHtraso2DONWptLxaGnh+nvftAuu1p+tw+TNXf+lzx2j0AW6A8TSj2/nqTLO2RZ0Oabk20DCVyCVPX9hrWU3oassX+oUseczT5oRqTBqAtefgHtgSxIl6/PdreQBdkQSs3x4pQFVsfvtic/soDN0+t2/VB6DQAbvjvLAvG0HpvX79aNPaPfbvIdXWr9PYlg7tLqStv1voy8VyAjL+//9TVUQpHHEExz8L0u0bRLxpue6mSPULIVl15fOcBw4PMarIT2sv6ouIs9ndil4mEa9uATGbUjpVmDAV1r2aMQD3YtV559EPeov7i63dMDOs3rZX6J4eM3zvuh/Aom9rJqEWW5saKk89TuXyemyo8wiJILLQFZkBo37+lGIQs8wZSGTMUmCx7uNPq6b9xKp+09jNtsuh92lh7bl/tm2enrgXcbPUFPdxgumwf9tb/uUv7gTVVe3ltgPtF1VkJ/QDGHSQT5vibeXFdy9a1UE0w1Pdp30/wfku7/1g6k1xx7rwhr35DpqmnalfMcIvb8gUk3USYf47JAlO+aeLjz5BvZqsyv9bmtozFrwMb0l10+eZjlRYryzY7vSl+gJBYQdJ1sXuEpG2ZNO72/2QPrXG9KtjDiNGRBGjy893uELPCOVZHnLDZZEJInjUEWOOoPa7SAPRYoJvUf4+NXuvKxT9/r+VLHm3LqhnkfzESMteMTe64uY6GC9u3KqSXdxCuAxnUq0TTtumtMrzfOrQq6VQxoS4SIpl3bue3sX0tL/FzKebjL1O+zBxQvufX715RJTxBQVG8q/yl7EuFSl8cL2bMGcu+u/wKCuG/+AGqf7m3vJBM7/3LnD6+ZPaTz/AFX0QWJBT+VAFlQ5M49x9uDLMgRsOLNXiSygI2nDYfuL2WM/nVZEMaTCMbw0Tzo9y4L6gbRYeyPLD+e5Li2IKcHFFnI5NJrGWbiQQn+1mS6mIB03uMHdmtgP4jAdUDtXVdqmmaoBJeO3O7QtiHt7mSPXWRbEGBg+HCXqT+4nJp6ya3fbW//gCK9VtWAK1i23j/tKh4xMMohrzS2PH/42I1VD3erJdMTyppH5SVRN5X96F807Wt9+l5vFGh3gwk/CllQvH7dz51BFvhBrSjPKS5ZcHmJp5WG1hWI6tpDXRb4Uxf6WcHeW3Bbp7I76Cv9f9H+HvpjATa/82QjC7qV3dFucu9r5J83tC45rC0hPyo4tUTE2LvNZ28Han/lPL6eQF9h0OYK8wsEb5r/AzJunlx6M/8BKpbOMTD+SBf2qCHpXHvzX1tw6VkfuX7eAGmF5v+5fGx/8dBjp8zPpAoVjydIv5zUo6f5zUj6swb8HU3kujeZf/C6i/mJUEUW3NzwyPXlaogiRwRcbjauQ5AFRenSfd8UZIFv6IrtxOKSBcZwP8eBmjI65K8zkpbiizX5JJHlLYds5B1QFnQxrSHQ3z1s7ntsZIE5A+1grLLABM7DncbSB/3bdmkn3vzjoAlI4ewxxbY/7FzHBtyd/cwgMNXVrXsHx4WBSteY7e2K9vqNVh978rNtt2v47zXz31+47srxvemvL7KIBQ+BEHDUuI5FFijmFeYmZEGxefNg9wNZEAy/Ijq7WGUBGxCbH0eUxpQ0qEBfycf6UQdZEOWSQ9Y32yxi4GsLjFu4o1PVuJsbxt/Ef1iI9/2hyAL6kwc9enasEj9nMLI9mew3Igc31Y67YZuxsJ+91OjSW4mYsP4+8o3zvu/hl6toTyz9yJPTKeJhhBumdqWvgfpOW16ndJqf/bzTXfTdA13pqwj4EwpC+ugSR9NuZUsi2HoIk46gPzj5Q+N1Rg1MhRgvOIIsKCKXh1txQACywAGY9O0uVlngZRZA+lFBVRY0WH/vWB4Rsp7b7oUHrDeqo28/VHtxZQw6nkxju8gC0bGxRFX/b2ptLi/5L+nFQVZZoBtm6vScN/TgSt3DN5pMHUJfnND5ysk/uOJW/ZUAppmC2l9coZdpEypgPajzNXM7Yhv+6ab+SrIC7MSbG8Z1k9cT1I2+ZvSPOvM9N87ufsXo3uRxx7LRN5rnDnS9ZVkzAVmQPs+YvjuGLEhfnTvccXHLAqnj5yNs2ruzzlg6apEFsgiwprPJAqVH1zdZ79W1/fyB14wmT9aRWQbvsoDNBZjeJ2iWBXWPdKvzIwtuqirpPG9A+8k/urLPdXzhoei821x667evHNu7Q7k8Cn/wGvpmQK3PHZJG4SgxScQfjuAPTZjfEq2/ZtF4hsI+m12ffcPs73xNa3OF6flJRRY80nlse61tl6tdFiTaV5B+C2z9hDZ6kHgswkYWVJV0LB8jMpjY5Vp4gnJiEsHBKaZ0N2RBSiveetuQBdSJRy8LxneruOuqW0V3q2lt234r82s7WcBeO/izrube5cbZ9LcLpb7qZvby41t/dM3UH7FfUriqjPfN8rlZ1hZMZO8eYJZd0qXDN0u+Q1/y88NOdE2+pRvT1+vR/JddPrnUT9fIxBB/QtJyCbu7IHf0WNfJXdjvHZivq8qCLuP1bE4/iyBf8SbyCuRfXDP5B1frv3j5SEf6iwxXzDbmTWxkAUO15C6xbFMuszDSkAVWf5jmPZAFaa59070Xtyy4tr3DpDWd244lWtCt6q5rRn9HGoW3ufSe2zqUPaj3pjbRAvtOset48nD/N6b+mv4g0Ogus++4qqQz+d0g8Wnb9kr1p5xpUdlkwc0Vd10ze0jXqnHd9KkEFnKwXVcxrst4tj6xW4f5/ckPKWmXfcs0cLc3Xu0m/ciCBzuW0CcypEUPvFhFFhAb+LMVmkZ+H0H8ugQ1r27cDeVDOk7t3fYeU3SELRFlDx9qZE2lcS9WWaCrNIlC3BjjrKTvgSwwucLUb0AWpJ4CHICUyoLriFx42nhlb3TRAvZ+QE3TvkZ+8qDEPIs/8Wb9nQTf6chnvh36kmFX02DBVWUPdmABfK4GvtbjO22n/qJLxSOOo/asskAOLZC0kyzgHXPbbh3o+kT9Z5e1y74xdlBug+ZcZUHtoKvYK4/I4xLmPp4YbCMLCIzbBupnae2vzOgvbRTVoePXtu037vlB+8zArlXjCIBVTOto3zS9+NnmldIsxKJkc6i7pAoFyALuBfGfIABZAB7oCBS3LPA6mBvdnoT3r2onv4Rf7Sxl565P4dsuiLP0DaUdJg/osk2em5eL0n9r4JJbv9suM1A8iy8nOmV6X6F3imQIe8PUzprW5tJ7fnDN7NIb6sTjAxNvdprUt/6CojzxL42JueX3Wn6raWK3igFX0lf7add+h2kClvmmsl7ibYOOP1poQVLvm71NInQr68VeWXjJrcayQW4qRbJuUFubn3ZkIHMpo2n6Gw/rBrW9tv03S350zeyS67fJCuPxG2brb0782j3yuk5SDosWSK811MWZ+Tem5WothDRkAboBGQHIAhmNVKeLVRZYuiJTR0KeQDNe56dH+M1xY3N+xcvnJAuUc9XNm8p7s56Vj/8d/rftcHUZ68Yesw0MsICHw8mOu/WXK5TfcSX/zcmr2NuTxI8iGr9FpF1i+8bAql/oisE5bEDG1saEjv50wyVjh9jeiAn5bb+4gr7iUXmNMZtSoQ8W8p9PdHzZ4mPXTyU/iGz9oWR+ocdvLLujbe82DKNLS+6yWUdZdQddb2GGsa3xBCMvSq3cRO+HLEi167fcPGSBBZK07kipLGAv8ZW8/LWd2+mdrhfPHqYsID1H7a+7zCZvJ3T4/qzDvFJ19sGie26Y53S62379fYj6EgcOiCFBJvKZgjbffNr5l4fqRtOfMbzqKicMy37Ei+b/1TcPOsJ+U/nPrrYsX9Cn9nlhl3T5rnhbkW1P3K1sYFebuIh+0Rsy3yYlte1wle3iDAr1DfN+cDl7MxK96Nd6fKe9ePuTpS5sbUjcTsiCtHp9+/uGLLDHJYV7i0QWjL+xnLzZ5vosM/Ry3yN+cGic5Tl4OZttWv9xXvMrdW1zFsrOx+UfEVYG8V0zP/PwfuKJ3bY9rJwodYQy2uRhReec3hHjZTr395IB7sU+2Dkz5MYC7d19mw1ZkEKH73LLkAUu4KTrUJHIAnenj6NAAAhYEIAsSJevz3a3kAXZEErNccgC34MtnAgEChoByILUuHlPNwpZ4AmmNGSCLChozw7jgYBvBCAL0uDhvd8jZIF3rIo8J2SBb6+KE4FAQSMAWVDkzj3H24MsyBGw4s0OWVDQnh3GAwHfCEAWFK9f93NnkAV+UCvKcyALfHtVnAgEChoByIKidOm+bwqywDd0xXYiZEFBe3YYDwR8IwBZUGzePNj9QBYEw6+Izmay4Mc3XI0vEAACaUOg87XtisiZ4VYCIQBZEAi+Yjp57dq1b+EDBIBAWhEoJm+GewmCAGRBEPRwLhAAAkAACACBokIAsqCoqhM3AwSAABAAAkAgCAKQBUHQw7lAoJAQqNhycNHq3S7fss/2FNL9wFYgAAQiQACyIAJQUSQQSCQCz8yreu69LXM+qrX9vrp4x0PPLUuk4TAKCACB+BCALIgPa1wJCOQXgWfmVZVVHqqpb7H9btx9BrIgvxWEqwOBJCAAWZCEWoANQCAOBCAL4kAZ1wACBY4AZEGBVyDMBwKeEYAs8AwVMgKB9CIAWZDeusedpw0ByIK01TjuFwj4QACywAdoOAUIFCQCkAUFWW0wGgjEiwBkQbx442pAIH8IQBbkD3tcGQgUDAKQBQVTVTAUCAREALIgIIA4HQikAQHIgjTUMu4RCBAEIAvAAyAABLIiAFmQFSJkAAJFggBkQZFUJG4DCESJAGRBlOiibCCQJAQgC5JUG7AFCCQUAciChFYMzAICoSMAWRA6pCgQCBQfApAFxVenuCMgYI8AZIE9LtgLBICAhABkgQQGkkCgqBGALCjq6sXNAYFwEIAsCAdHlAIEko8AZEHy6wgWAoG8IwBZkPcqgAFAICYEIAtiAhqXAQKFjABkQSHXHmwHArkgAFmQC1rICwRSigBkQUorHredQgQgC1JY6bhlIJArApAFuSKG/ECgUBGALCjUmoPdQCBGBCALYgQblwICeUUAsiCv8OPiQKAwEIAsKIx6gpVAIDgCkAXBMUQJQKDoEYAsKPoqxg0CAR0ByAJQAQgAgawIQBZkhQgZgEAhIbBma/1f397wrN33Ny+sWLL+cE19i+13w+4z9z9bbnvis29vWLByVyGhAFuBABDwiwBkgV/kcB4QSCoCf3t7w2+nrf5449FPNjco381fnrXVBGynkplt/umNDROmrz515kJSbxd2AQEgECYCkAVhoomygEASEDh9tvn3r1RMX1jtogA8HlpQUffQc8sOHm1Kwn3BBiAABGJAALIgBpBxCSAQNwKHjp0e+/zy91ft99j922ZbsfX4A1OXbd55JG7rcT0gAATyhwBkQf6wx5WBQJQIbN3T8MDfPl32+THbLj/rzo27zzz60soPP9sTpY0oGwgAgcQhAFmQuCqBQUAgLAQ+Wrf3Ny+uWF97OqsIUDJsPXBh8qy1ryzcEpYlKAcIAIFCQQCyoFBqCnYCAT8I/G/XPnHm2i/2n1c6fvfNZ9/Z/NTr65pbvvJzSZwDBIBAISMAWVDItQfbgUA2BJpbvnp6buWf39pY7fBcolUfzPlo12PTVp1oOp+tbBwHAkCgCBGALCjCSsUtAQEZgVNnLjw2bdXspbusCsC6p6zy0INTl+07fEouAWkgAATSgwBkQXrqGneaXgT2HT710HPLyioPWXWAvOez6hMPTV1WVX04vUjhzoFA6hGALEg9BQBAOhDYvPPIQ1OXrdp2QtYBcnrT3rOPZVYvXFWbDjxwl0AACNgjAFlgjwv2AoHiQ2DR6t3jXl61aa/Niw631zVPmb1u2vzPLxbfbeOOgAAQyAUByIJc0EJeIFDgCEyb//mU2eu21zXLcYKa+pYX3v/iD6+tvdCMRw8KvIJhPhAIjABkQWAIUQAQKBwELjR/9eTr6154/wtZFryzbO+4l1YeO3mucO4DlgIBIBAVApAFUSGLcoFAMhE40XR+3Esr3/50L1MGn2xqeHDqsj31J5NpLawCAkAgZgQgC2IGHJcDAvlHYE/9yYeeW/bJpobKnU1jn1+xdmt9/m2CBUAACCQDAciCZNQDrAAC8SKwblv92OdX/Hba6vkrdsV7ZVwNCACBRCMAWZDo6oFxQCA6BOav2PXS+5ujKx8lAwEgUIgIFLYsOIsPEAACARA4fqIpwNk4FQikHYFC7PWz2lzYsmDSpEkaPkAACAABIAAEYkdg167inIAreFnwwAMPpF2v4v6BABAAAkAgXgTatGkDWZA18JCHDJMmTXrggQfycGFcEggAASAABFKMAGRBQisfsiChFQOzgAAQAAJFjQBkQUKrF7IgoRUDs4AAEAACRY0AZEFCqxeyIKEVA7OAABAAAkWNAGRBQqsXsiChFQOzgAAQAAJFjQBkQUKrF7IgoRUDs4AAEAACRY0AZEFCqxeyIKEVA7OAABAAAkWNAGRBQqsXsiChFQOzgAAQAAJFjQBkQUKrF7IgoRUDs4AAEAACRY0AZEFCqxeyIKEVA7OAABAAAkWNAGRBQqsXsiChFQOzgAAQAAJFjQBkQUKr17ssqD5ydO2+A/iGjkBCmZE/s842N4cOMgpcu+9A/qo0oVcGK6JAwHtlQxZ4xyrWnDnJgg5PP3fj1Gn4hojAxH9+Gmt9F8LFzjY3X/7En0IEGUXdOHXa4L/PL4TKj9XGK6f8BdwIF4Gfz3nbexVCFnjHKtacucqC+fvq8A0Lgbvf/x/IAivdmSx4Z8++sHBGOQ8sLYcssDLtyil/ea1mF+gRFgK/XbYasoDRrBh+WNnaYKx7qo8c7fD0c2ERCOXM31cHWWClWWtrK2RB6K0DssCWaZAF4TINskDQDLIA8QOfCEAWiFYkJyALwnXW8/fVQRbIBBNpyIJwmQZZIKgFWeCzUwyXkYVYGmSBaEVyArIgdDJDFsgEE2nIgnCZBlkgqAVZAFngEwHIAtGK5ARkQbjOGtECmV1yGrIgXKZBFgh2QRb47BTDZWQhlgZZIFqRnIAsCJ3MiBbIBBNpyIJwmQZZIKgFWQBZ4BMByALRiuQEZEG4zhrRApldchqyIFymQRYIdkEW+OwUw2VkIZYGWSBakZyALAidzIgWyAQTaciCcJkGWSCoBVkAWeATAcgC0YrkBGRBuM4a0QKZXXIasiBcpkEWCHZBFvjsFMNlZCGWBlkgWpGcgCwIncyIFsgEE2nIgnCZBlkgqAVZAFngEwHIAtGK5ARkQbjOGtECmV1yGrIgXKZBFgh2QRb47BTDZWQhlgZZIFqRnIAsCJ3MiBbIBBNpyIJwmQZZIKgFWQBZ4BMByALRiuQEZEG4zhrRApldchqyIFymQRYIdkEW+OwUc2Dk2hf/VfuPsWsdL/Tfv9G03yykBS4cqNl/Bn6gn/7fv9H+9YWNytVtdyp5Qt+ELBCtSE4kSRYsHDj1EAIAACAASURBVGgmXk5Mm//BOK3Pi7OUXxez3ankCXsT0QKZYCIdnyz4YJy9VzLvFT7K3tU4Mcd2v+3OsHml2AlZIKgFWeDYWyukCbIpuWPr5TbOWltHMlhdMG8G//0bTTQ5kwIgzXXcf+8jp1u1QhCDvZwLWSBakZyIUxYQ2kgfQRJefYosyI1pZllABCspPx/+GrJAJphIxycLdEek0Mnqyugei4bQaenEHNP+fNIMskBQC7LAgdy8S+Ye1nu2jWP7SK7aOclai5ceXZEFmqaLAHGuSORurff7UnNCFohWJCdilgVcDhLWucsCLySRmUYUgMbVqvDdIuG/gahEykpayAKZYCIdtywgUU8yCMlaX/YZnJiTGJpBFghqQRb4Zblj87B10OpVhP81nLVFZbNIwHwaDCAenzbLgTQwQE5/4cV/ddAcvKtQL2rfXB1vJMvpkAWiFcmJfMoCZ0oM/EAKKWVl2j7K4d/QSYQPxmm/edFR6TqHuEIkG2SBTDCRjlsW2NCGOyB9DtTeY8x64T94Puk/YU6yaAZZIKgFWWBP5QBOzSQLjF6ftgHRYdvLAtnJStqcZSatq8+LY/l8gTwxIV0l9NtxLBCyQLQiOZFPWcAXoHD2mqK+BkmUcZuFaVSA/sfYF/jaAtIf8GGicq5fTcktdGSXnAGyQCaYSMcsC2a98B/Cfcm1Q/ySqyzQM0vMYa5sFiFegmgGWSCoBVngyTHJzcBrmpBerCVkVyGKQWNztNyfenfWLKeeX3LlLJxg22K9msqNySk/ZIFoRXIiv7LA7KP9ygLmwXU/bpK5WFsg13V+0zHLAsNTmd2Feb/tomm64FqRBb9ZqHMpMTSDLBB8hiyIQhawtuHw9AGTC3z4ZTQqmxidPkQToQUnBWAUYm6xOXXzuWaGLBCtSE7ELAuksCxbWyBLATmd0yQCbRSSHze4YbszYtYhWiATTKTjlQVmdSjVuK3zse6UBaucthea+aAZZIGgFmRB2LKA9u6WxV/qVcSjB0b7UVqCFA+wlQWkadl/HOSI1JINLx9gJ2SBaEVyImZZwKNEktc2iOQsC1ynq3R6iHJ0IWvDNn51ld6hEEwUAlkgE0yk45UFJi6JqjFWPpk8ycKBZNhDOCkYYji6fXX2siDfNIMsENSCLIjGo9kM/WWvymdq5WcLhRdmDSybLFBapmh+8v5I05AFohXJifzLAuKOmTQ0uXLDL3tjWnKGcZAFMsFEOnZZIHswU1odBX0wjrkj0v3rApQ/eUidm7wuKjk0gywQ1IIsiEYWmLSzNJIz7SeXNjlrU1vTxDov22iB3OUbhVjKl7OFm4YsEK1ITiRAFghKO8sCD0xLjr+GLJAJJtLxygJBKiVhdW5ClbKHp/jCAj5tanJ6+xzehKEo11jcGmSBoBZkgcLyKDatLce4itGjO7cEyALB1+QnCkMWyJMIks+VmQZZkHCyJUYWmGctyROt5J2t4l1b//rCQnk2AbIg4bxqbW2FLDB66HAH01Jp3mSB5J2lc+vms6d7+bNnhoyQ8tvuNBcS/m0iWmDbvGOWBfKwX43l7nOIFkjMMZPETFRbnWq707HAcFiHaIEt05IhC0wcY86KcZKxUV8CZZKhhGbGpKcto2x3RkwzRAsEzSALwvFcknslpPfyYQ3DuUeXH/WxrEVwX7tgaoSh36BeIGSBaEVyImZZwN2r1KPLS7ckJuTKNB4tkHlo5bV5pBiN44YskAkm0nHJAq8OTUx6Ss6QziNwEkqrpA2HlhyaQRYIakEWRNVrmtpGNO4yv5eALBCtSE7EKQvyS4DYrg5ZIBNMpOOSBWnxkJAFglqQBWkhfehOHLJAtCI5AVkQOtMgC2SCiTRkQbhMgywQ1IIsgCzwiQBkgWhFcgKyIFxnPX9fHWSBTDCRhiwIl2mQBYJakAU+O8VwGVmIpUEWiFYkJyALQiczZIFMMJGGLAiXaZAFglqQBZAFPhGALBCtSE5AFoTrrBEtkNklpyELwmUaZIFgF2SBz04xXEYWYmmQBaIVyQnIgtDJjGiBTDCRhiwIl2mQBYJakAWQBT4RgCwQrUhOQBaE66wRLZDZJachC8JlGmSBYBdkgc9OMVxGFmJpkAWiFckJyILQyYxogUwwkYYsCJdpkAWCWpAFkAU+EYAsEK1ITkAWhOusES2Q2SWnIQvCZRpkgWAXZIHPTjFcRhZiaZAFohXJCciC0MmMaIFMMJGGLAiXaZAFglqQBZAFPhGALBCtSE5AFoTrrBEtkNklpyELwmUaZIFgF2SBz04xXEYWYmmQBaIVyQnIgtDJjGiBTDCRhiwIl2mQBYJakAWQBT4RgCwQrUhOQBaE66wRLZDZJachC8JlGmSBYBdkgc9OMSAj391WPf3VV2fMnh2wnDyeDlkgWpGcgCwInZOIFsgEE2nIgnCZBlkgqJUuWdDz5ZkJ+f705VczmcwLmUxC7PFnxsR/fiqYhARDgMkCf3jGdtZtL7/6TGb6n6cVDP0G/30+CKYgcOWUv8RGmBAv9HBmxjOZ6QOnvRJimWEV9fM5bysgu2y2adNm165dLhkK91CKZMFHO3Yl57tow6ZMJjPjlVeSY5I/SwqX+hFZfra52R+ScZ714eYtmUwmM316nBcNeK2I6qtwiw2IZ75On/PePzKZzLuffJovA9yv650PkAXesYo156RJkx544IFYLxnSxRoaGjKZzMyZM0MqD8UAgRwQOHHiBFUF03M4B1mBQBgIlJWVZTKZzz//PIzC8lkGZEE+0Xe5NmSBCzg4BAScEIAscEIG+6NGALIgaoSDl5+WSYTgSIVbAqIF4eKJ0nJCALIgJ7iQOUQEIAtCBDOioiALIgI2S7Fnz57dvHnzF198kSUfDgOBCBCALIgAVBTpCQHIAk8w5TUTZEFe4cfFgUA+EDh37ty6devWr1+fj4vjmqlGYMeOHevWrTt8+HCho4C1BQmtwcJdW5BQQGEWEAACQAAIeEAAssADSPnIAlmQD9RxTSAABIBA2hGALEgoAyALEloxMAsIAAEgUNQIQBYktHohCxJaMTALCAABIFDUCEAWJLR6C1cWtLS0HD16tKGhIaHIwiwgAASAABBwRgCywBmbvB4pXFmA9xbklThpv/jFixdP0k/agcD9x47AmTNnTp48ef78+divHPIFIQtCBjSs4iALwkIS5aQKAby3IFXVnaibxXsLElUdtsbgvQW2sES+E9GCyCHGBZwRgCxwxgZHokUAsiBafMMoHbIgDBRzLwOyIHfMcEZoCEAWhAYlCsoRAciCHAHLQ3bIgjyA3traClmQH9xxVYoAZAGIkC8EIAvyhbz360IWeMcqzJyQBWGiibJyRACyIEfAkD00BCALQoMysoIgCyKD1rVgPKDoCg8ORosAZEG0+KJ0ZwQgC5yxScoRyIKk1ATsAAKxIdDc3HzgwIG6urrYrogLAQGGQENDw4EDB5qamgodEDygqNbghQsXDlg+zc3NSr5Tp04puerr65U8bKJdyXbs2DFrtoMHDyrZpkyZ8sADD1hzYg8QAAJAAAgAgegQgCxQsT106FDG8mlsbFTybdiwQcn1+uuvK3laW1s//PBDJdtHH31kzfbKK68o2f785z9DFliBwh4gAASAABCIFAHIAhVeyAIVEWwDASAABIBAahBQxqiZTGbHjh3K3e/bt8+a7fTp00q2NWvWKNnmzZun5GltbX3//feVbGfOnLFmC74HawuCY4gSgAAQAAJAIF0IKD00ZEFSqr9wX3589uzZzZs3f/HFF0mBEnYAASAABICAZwTyO4lQST/W9XyezXfLiGiBGzrRHcN7C6LDFiVnReDChQvbt2+vrq7OmhMZgEC4COzfv3/79u22i8rDvVDUpeVXFkR6d5AFkcLrWDhkgSM0OBA9AnhvQfQY4wr2COC9Bfa4JGkvZEFMtfHll1+eOHFCXMxWFhw4cKChoUHkQQIIRIQAZEFEwKLYrAhAFmSFKO8ZIAtiqoJTp07NmDHj448/ZuJAkQX79+//4IMP3njjjYsXL8ZkEC6TJgT27dsnPz9sKwsOHTp05MiRNKGCe40cgfPnz1dXV8tuzSoLWJ7ITQn7AphEUBFtbGxcsGDBkiVL1APxbhfWksPly5ezxav//Oc/d+/enclkZs6cuXfvXvHYCeZ646VPiq52+vTpV1555aOPPmLiQJEFdXV1CxcunDNnzldffZUiUHCrsSDw8ccfv/XWW9u3b2fiQJYF586dW7NmzcyZM2tqamKxJcyLQBaoaLL3Fti+m0jNGuV2YckCFjAQj7VMnz59xowZYvPNN9+EU46SLGkve8WKFYxsS5cu/fLLLzOZzPTp01mYiu3fsmVL2jHC/UeAQGNjIyPYG2+8sW3btsWLF2cymQ0bNlRUVLA31M2bN08OJ0RgQiRFQhaosEIWqIh42xYBA6EGRAKhAm8QIpdPBBRVKojHEnPnzm1pafFZNE4DAq4I/POf/xR8e/XVVzOZjDwisr4FyLWwpBzMoyxobm5meCbrdUaQBf64efr0abk9iKaCUIE/PHFWTgi4qFK8QiMnJJE5JwSOHTsmfJ2SePvttwsxVNDa2gpZoHIAskBFxPO2iOXKzWPbtm2eC0BGIOATgZMnT9qq0rlz52ICyyemOM0bAkuXLpU9nkjv3LnTWwGJywVZoFYJZIGKiOdta8AADyB4Bg8ZgyJQXl4uPLJIYFVBUFhxfjYEbAMGb731VoGGChAtsKlwPIlgA4rnXStXrhQeOZPJYFWBZ+SQMSgCp06dmj59ukw/PIAQFFOc7w2BJUuWyMSz/REBbyUlIheiBYmoBqsRhfUkgrBfDhggVCBgQSIeBJSAAVYVxAM7rnLkyBFZFhTuqgJWlZAFCaV0gcqC1tbWVatWsRaCUEFCuVW8Zp04cUIEDBAqKN56TuKdsacTmesr0AcQBKx5lAWtra0H6EcYE24CbzkMF0+vpbGAAR5A8IoX8oWKwMcff8xcM0IFoeKKwrIgcPjwYUa8Qg8V5HdtQRaUAx+GLAgMod8CVqxYgQcQ/IKH8wIhwN4wg1BBIBBxsi8EWMCgcB9AEDed32iBMCOKBGRBFKh6KrOpqQlPhXlCCpkiQKC8vByhgghwRZFZEGhoaCjoBxDE7UEWCCiSlch1bcHFi6079x9fv/1QJb6eEVhffahmX2NzC96WnyzyB7Tm1KlTUKUBMcTp/hA4efKkvxMTdRZkgVodBffegvMXvnrv0x1jnl/+xKtrnnl747P4ekbgmXkbJ81c+9DUZfM+rmk6c0GlArZzQaDuaNPW3Q1f4JsLAtVfHms8dS4XmFOU93DjmW17wKjcENh98ERL4F8FgyxQm1lhyYL9h09Nmrnmpfe/qKg+WVPfgq8PBNbWnMos3DZhekVt3QmVDdj2gMDiz/aMn776t9NW/fH1yifnrMfXOwJ/mL3uwb99+pe3qjbUHPaAdFqyLN+4f/KsNb95YcUUMCrHBvX7V9c8NHXZ3CXbjx4/65su+ZUFSXwSoYBkwfkLX02auebNT3b76AtxioLA35ft/d20VcebMHTLwZkcP3X+z2+uf/btTeWbGxQ8sekRgeq65vmrD/wuU/H38h05QF+8WTMffP7H19eVrT/sEUBkUxBYt7Pp1Q9rxj6/fNPOI/5okkdZgJ9KcqsyL2sL3vt0x0vvf6FwApu+EZixqHruku1utYJjZgSefnP9zMU7fAOOEwUCG/ec+dPcqgUrd5kBTt3WKwu/eBE+LYy476I1B+9/tny3rwgoZIHa8AolWnDxYuuY55dj7kA41uCJ9bVN9z9bfvpcs8oJbNsh8GHF7r+9szk47CiBIbBu56mHpi7bW18Ma9bs+JJ939qt9U/MXAM+hIXAW+W7//r2huy4W3JAFqiQFIos2Ln/+BOvogmFvJziqTnrP991VOUEtu0QeGzaqmWfN4blwlBOTX3LrLKdb35UbQd2KvY9M6/qg4oDYEKICPx22qraAzkvmYIsUNtbU1NTZWXlpk2b1APxbmedRFi//dAzb28MkUAoqqa+5fl/bFmx6UC8VV2QV9t36NRj01aDM+EisOzzxokzPytIQgQ2+vyFr+5/tvzzL8+FC2nKS8ss2LZk7d5cKweyIFfEYsqfVRZUbj/0LGRBGJNwsuN4AbLAG8E/33X0T3PXy9AhHRyBjXvOPDR1mbcaKLZch46dGffyyuAYogQZgTc/2f3WP3OOP0EWJLR1QRbI5I4tDVngsT1s3nnkv9/cEFu9pORCm/aeffBvn3qsgiLLVt9w+rfTVqWkomO7TSILcp+WyqMsiJrVRf7yY0QLomhakAUemyVkQRT0gyyIAtU0lwlZoDg0yIKQl+OloXVBFiityGkTsiCK5gBZEAWqaS4TskDxYJAFkAU5IwBZoLQip03Igig6G8iCKFBNc5mQBYoH8ykLLly4cODAgfr6eqW4mDextiAvjRmywCPPIQui4CdkQRSoprlMyALFofmUBYXy3gKsLYiitUMWKK3IaROyIAr6QRZEgWqay4QsUDwYZEHOIfQ0tx9275AFSity2oQsiKKxQBZEgWqayyxEWVBJP83NkbxtFrIAsiBnBCALnHSAsh+yIIrOBrIgClTTXGbByQL8VJLiaU2bftcW7H+mr/aTl/d7awkrx2iT33Z4I9Dbj+rlvP2oZv/pO2eV5dxVL/d3vvrKMVr/ZzaYu+pFkzVTOSvHyBfrO+cZ26ubTtELXPVyf3NR8oUkWBZNlq8g0sxsyAITC503zLLAXLMb5vxEr6D9z/Q11Tipo0elV9Ysmiw21UMWatXUq6XZkHzDnJ84UtpsJCvfN/3IhaRP38lj+kqbetJ078RaetaYRTIzTWnIAps6FUwweNVSU08chUCS+ChGOVPrJs7N1n2JEyXWSS6CXJFsimwWq+y4JOzkCcMjSTw3F+WpHPMphrv7ycv7Xf0tyQlZoPiwFEULCP/cPhb3pBPXqyywaR56EzX34vY2COVhtAGjNap+mZHeMEyoE+MUk3eQvarJU1jbkijKeki0LsgCpRU5bdrLApNTNrOBqgFTJZL+2+jpjUP1LSRt+jAKGZmtNajvsaeTIJXeEIxr2ef3TD/jdGsvYrCdW2vbWETrIEZCFnCs5HbN07zhW+ghuCI7Or0S335U6d3VmjLIYEgBPc+qDabxFVEYuqi1Vi43krlW2hDEAGnVhv3SuXJOg2kuN+58v+LGlXs0LgFZoHiwlMkCeRDG5SqlmsRgZYhjkEqkaLuSs9Hx+phF1FPTS+idK2+iCptF/6rsVywxmiJxrP35wEu4SKO12Ip9NjKwPyRuhSW4zTbKRkJJmA1ZoLQip017WcAgNbihduRGvROO0ermPatxSKoXM4vU0tiQUalwm02LKzeuFYB+xDZuvDS4FM1NJJiPNiit35Rd5ACywFzjonsj/TT/9B/zaH/t0TksEKX3+mQ4PtkcjMwuCzw5EBGYJPUlZIdSucJOPczATbX8V7y07GkteTVNj9cadJWahu1OK3qQBYoH8ykLCvEBRVeKSAwWvlinl+KqpJw0+GaoXSP2u3/VBtpEbUJ2drym+8YsMofyHl1JDJY+9EKyMUZaDPGNe+S9jmUcIDdOmuaxO5FTua7G45CQBUrjybrJZYHsr0kg137S59GVLH4u6nzMy1wW8ICBUb+S7+Nuzm6cLfy1kZ8QeMyj/a0S0NQBhEQ/YptHWZDN+wseQhbwGre0ZTYFQyudU2X/M48SvhEuke6WuS+ZkER3mqqe848xRLgFx4ua65efbf/fnnUmHWBysDp/TBns7poFz4jokT/9n3lZn4ATvsv2LiALFFfmUxYopeRrM6e1BdbeTmaQJkSuL1kg0c7UW5N4mtFsZBdJm6LutUkr5Q1GbxW6taw9GCUYhdMWrkcOvMkC0m3oIoaG7/Qr2skCoXWkER6JhbD9iBZ4JDyXBVx+cY7ZuFpeCzW6g6NrC1QqGuEoW+9Gd0pe1aAN96S06xXuXqplnkHvNvgMRVD6mZTKT15eyXkujOQJomInjzGtsSCNQrZQgAZZ4Fz7dGWGkAVmB8e3+j+zQbgRkWAEkB2RoARJODlPpYI005oVXrmGJKVletB/IgbALi1fxenehXcyZdBHR9YQmunuCk4WtLa2LqCf8+fPe/RFOWVLmSxwVJ0Sg1VfrLQcKadQ2aZilfxCCphcJGmixllyazTK53pflMBWY7HJZt7GNefRpxgp6u1QzD7oTYINEUSTE27X6gJYRyIaHmSBxzYmywI+ICMhVp6WKlHig1HvKhXJiby+LHTSSzD4Y9KjnAPPkBCUzgRW0bxAxgrjdMMMIS90ewhdjY9T8EPQT5xuTEuLNmJcjglQo1i7FOMhZIGp57N2ugJ55ZDY5KFEvRynxS5u5TAOSC6FFCJtkmvJlWvqhqXrslNozkUiNmbKbN9YOD04e3UXavJdxH5S8phHyXjG4LPAgScKURZ4dEH+skEWqN5QCeRy+sn/6eQZb0uUl3Y+Wj9DzLTpXCcs19ubrAZESzDaksFj4VhN7Vn4VqO3ME5hOVln4Na82TiANE5ZFvDGZlpsDFmQaxszZAGpjv502pXU2hh1hRdVflwmCtcmTSIwelgJYxkGSUpCJwMjqswBE4v4QFDPECr9mNsV7BWywDDSuJzU1emtSSKhwVIsOczyC4pG5bKeW3ZcNK3MVfWds8paQdJkhFQv3Ecxr8LpapNB725tK5cVQquYUI7Vdf9nNuxftaFl1YY5ZBYge8m6JcJlEQVMRYnwUcSNU0pTVWHyb1aDIQsUz5YyWWBpI9IO3n8bPkswWFbBJq5Lozc98zMvz6F+Xz5FJzFz93ro3mg5mlllG+UbfTxpt/rDXZKvNGSBILpxChfC5BBXMNLNGklhj2hjRtMihRhdkdiPaIHSipw2hSyg2Bo1az8Akv0184ycim8/yshplKDXuDT1YOzhCsCeDDIxbNLGJYzTg9NPN0nnEimZRrmMZ3dZT6OzkrQdPQ/nqUR7PIng+sPKvDukLZf7NF7RRp2yPSyziyww1QuvDJv/7EIOQsTIT70icUdsIsNwfbxF0HKYv8ouDgzXJPsu42pM8RjbNj6ZtRrIAsWDpUwWOFLN8IY0WiATSOl9pZzmJYd8sp/lXzmGe2fKvGwNxshMy3+ZvKjgbbGG0Wi3Yh6BxeiYnU6xCtUpUEuU29ElS405WmA0JZrCJILSbDxucllAln2xeKbyRgrhzvROnTprw3dzp8w6RdpTynUqQgUGJ2WdapSjh3NZfkJFqZc1fCunB12oFSL9GHsNDhO6jnlUvIpD3AWlonTL9H6JqQpKmESQ2aKmOYBjFjn4HNkHiqpRGjzbNJyS4SXkcYJ6aS4++H6DlnyPXA5JsyqmV9NdrkRgJ7fGjCMBBr5UhRQlncivYiikFuUpSsUeyALFofmUBU1NTZWVlZs2bVKKi3kz5yWHcpMwkVhiMGlXucsCHsXi4kDuv3WaGsTlLpJoZLNJumqmDdJw6zw/YbOR5s1Gar3GKaa74+2E7PQkC6RuwzgX0YJc6c1lAcNQ55jkCi3OmJLBqESjrlnIh3bYgpyLJtNq4t6fLW4VR6mjZOziBRodMN/DTKL9NH19UAT04yzVeU6tNa3DZVbxbIzMtG8jd8fCIeYmCVmg9Gp8U2cCj/8Z1c0z0G5YdjhqtEl0tCRh6wTCkgW8FRielnGPG2+4HWG8JSE5bV348hvUtREpnHldq6eVS4MsUDybT1lw6NChTCbz+uuvK8XFvJmzLLD4YWkHH4fplJKOqEmek3OOO1nh/QXXTT2B0cx0d0+n06SAqspdtdGS8um1prHncIwCuQgwW2LbtLLLArnByGkhazCJ4JHntrJAQEqqm7/xQuzkVSy95ZAPqkTMhq5N0fsA/gSN0iWQqtfri/CZMdbSTwjZQfvdPygiNTj9aFMyHD1rWaxbEpc261TWN/DFN+QWdN1syG5MIrhOInBXwPpv1XWZZ+4t7kKQip0n/JjsSUgeo06Ny8l5WFrutq1H9T16jfOnoOWGkCVNSau/f5bTyXJHhg3CfVmLhSxQHFrKZIGslE2ENthjmURQCM1zMh/HHzmTqKb2u8z702lUo9UpPbrh/lSrrO1abauiXVmzao8uMC0at8lBd9EhmhKqFXckla/rIcgCpRU5bdrJAoMDwrcaCD9qI/joUbnSLb075Yzh9XRmalwxGAQmTtP8UXgoKp0m+AjedIpsCSnZMN6UjW5IzY1e2tDTNGrFT5AWVVBMDIhMy27ofY1ZBFngXRbIgJPK4r2mQFgPxfOaMCb75VlFxgqJPCoHSAa2IEAqyCEpFKp+XLQCM/cM0kr7VULyc8nt6GmD/Pz6EgmlokzlF6IsSOIDioUYLXDiBPbnigBkgZMOUPabZYHJE+WKOfILBDCJIKBAIhQECk4W4KeSFE9r2sxpEiEUAqGQmvoWyAITC503IAuiaC+QBVGgmuYyIQsUH5aiSYQ08z7ce4csUFqR0yZkQbjEY6VBFkSBaprLhCxQPBhkAUK7OSMAWaC0IqdNyIIoOhvIgihQTXOZkAWKB/MpC5RS8rWJSYS8NGbIAo+EhyyIgp+QBVGgmuYyIQsUhwZZkPNYOc3th907ZIHSipw2IQuiaCyQBVGgmuYyC04WtLa2VtJPc3Ozk/MJsh+yALIgZwQgCzw2OciCKDobyIIoUE1zmYUoCzy6IH/ZIAty7hTT3H7YvUMWeGxskAVRNBbIgihQTXOZkAWKQ4MsgCzIGQHIAqUVOW1CFkTR2UAWRIFqmsuELFA8WJHLgvXVh/8yb2OaGR/FvT//3paVmw8oTMKmFQHIgijoB1kQBappLhOyQPFdPmVBY2PjggULlixZohQX82bWJxF2HTj++1fXpJnxUdz7H19fv6W2Iea6LsTLfb7r6J/eqIqiCtJc5sY9Zx6auqwQ+RDc5vpj2JpB5AAAIABJREFUp8e97PHlxzlHAVNLqjc/rp33cU2utdOmTZtdu3blelZB5PcpCwrl5cetra2/eWHFiq3HU8v40G987Y5T9z9bfvZ8JCtgC6LNeDdyb/3JCdMrQq+ClBe4fEvj71/5zHstFFPOs+db7n+2fOv+8ynnQLi3P33h9rLP9uTKE8gCFbECkgUfrNj13HtbwqVRmkt7+YOt8z6uVgmBbQcEHn1p5UqoUtMPgAUdxb6+dNecsm0OeBf/7qffXP8/aw6m2QWFfu8TZlTs2NeYK3XyKAvwmwhulZV1EqG1tfXixdYn51S+vnRX6GRKYYFvfrJ74qufnTmHUIEbLeVjC1fWPvfe5ymkSkS3vKH29MPPr9i5/7gMcqrSqzbXTXm9MiJ4U1jsu8u//PNbVT4oBFmgglZA0YLW1tajx88+Nbfyb+9uXvb5sRTyPpRbXvHF8Rf+sWXyrDUHjjSpbMC2MwJfXbw4ZfbaOVClYQQMth648Jd5G98t3+GMdyqOvPT+5mkLtoXSrlNeyNKqw/c/W16Te6igtbUVskBtbIUlC5j1i1bv/l1m9WPTVj85Zz2+OSDweuVj01aPe3nVByt2Nbd8pVIB29kQqD92esrsdS/8Y8uqbSdS7oWD3P6Ha+snzVw7Z8n2bHgX//HzF7567t2Nf35rwyebGoJAmuZzN+05M+ej2vufLV+3rd4fYyALVNwK5UkE1e7W1v2HT23d3fAFvp4R2LqnYd/hU1Ykscc7Ai0tF99fvvPh51f8/tU1f5m34dm3N+LrHYE/v7nh0ZdW/uG1tau31HnHvOhzLl27d/z01eOnV/z5LTAqtwY15fXK+58tn75gS5DYJ2RBQpuYl7UFCTUdZqUSgZ37j1dVH67cfghf7whsrDlch6krh/ay5+CJqmrQKTcEtu5uOHXmggOiXndDFnhFKuZ8kAUxA47LAQEgAASAQH7XFrS2th6gn4gqwud7CyKyJtdiIQtyRQz5gQAQAAJAIDgCeYwWBDfevQTIAnd8cBQIAAEgAASAgIoAZIGKSEK2ES1ISEXADCAABIBAqhCALEhodUMWJLRiYBYQAAJAoKgRgCxQq7cQ31ug3gO2gQAQAAJAAAj4QgCyQIUNskBFBNtAAAgAASCQGgTyKwuS+CQCZEFqyI8bBQJAAAgAARWBPMoC/FSSWhnyNtYWyGggDQSAABAAAvEgAFmg4oxogYoItoEAEAACQCA1CEAWqFUNWaAigm0gAASAABBIDQKQBWpVNzU1VVZWbtq0ST0Q7zYmEeLFG1cDAkAACAABggBkQUJ5AFmQ0IqBWUAACACBokYAsiCh1Ttp0qSu+AABIAAEgAAQiBeBPMqCqPvjwv5NhAp8gAAQAAJAAAjkA4Fdu3ZF3UPnpfzClgV5gQwXBQJAAAgAASBQrAhAFhRrzeK+gAAQAAJAAAjkjIBPWXDhwoUDBw7U19fnfEGcAASAQJ4QqNhSt2j1bpfvkjV78mQaLgsEgEBSEPApCxLy3oKkoAg7gEAhIPCXt6qe/8cXcz6qtf2++mHNmOeXF8J9wEYgAAQiRACyIEJwUTQQSBQCf36ramnV4Zr6Fttv1e7TkAWJqi8YAwScEKikn+bmZqcMQfZDFgRBD+cCgUJCALKgkGoLtgIBBwTwU0kOwGA3EAACOSIAWZAjYMgOBJKIAGRBEmsFNgGBQkQAsqAQaw02AwEFAcgCBRBsAgEg4BMByAKfwOE0IJAkBBIqC/CAYpJIAluAgCcEIAs8wYRMQCDZCCRUFiQbNFgHBICADQKQBTagYBcQKEAEFtDP+fPno7Dd55MIUZiCMoEAEIgUAciCSOFF4UCgOBCALCiOesRdAIHsCEAWZMcIOYBA6hGALEg9BQBAahCALEhNVeNGgYB/BCAL/GOHM4FAYSEAWVBY9QVrgUBeEPApC5qamiorKzdt2pQXo3FRIAAEfCAAWeADNJwCBNKGgE9ZgJ9KShtRcL9FgABkQRFUIm4BCESNAGRB1AijfCCQFAQgC5JSE7ADCARDIIkPKCJaEKxOcTYQyAMCkAV5AB2XBAJhI5DQ1xlBFoRd0SgPCESOAGRB5BDjAkAgegQgC6LHGFcAAulAALIgHfWMuyxyBCALiryCcXtAIDYEIAtigxoXAgLRIZBQWRDdDaNkIAAEIkIAsiAiYFEsEIgTAciCONHGtYBAMSMAWVDMtYt7SxMClfTT3NwcxU37fEAxClNQJhAAApEiAFkQKbwoHAgUBwKQBcVRj7gLIKAjsGpz3f3Pljt9l1Ydqalvsf1W7T7tdNb9z5a/83ENIAYCQCANCEAWpKGWcY/pQuCdT2r++82q7Qebbbv/XHe++mHN397Z8NXFi+kCEXcLBNKKAGRBWmse9128CHx18eLf3tnwyoc1uSoAa/4FFXW/f6Xi9NlIpjCLtwZwZ0CggBHwKQsaGxsXLFiwZMmSAr51mA4EiheBs+ebf/9KxcKKOmtP733Piq3HH31x5aFjp4sXJ9wZEAACKgI+ZQHecqgCiW0gkDAEDh07/eiLK5d9fsy7DpBzrq89Pe7lVVv3NCTstmAOEAAC0SIAWRAtvigdCOQRgZovGx95ceX62tNyf+8lvfXAhYkz135c+WUejcelgQAQsEUgoe8tQLTAtrawEwgkDYHyqn0TZ67deuCCFzUg8vz175tf+3Br0u4F9gABINDa2gpZABoAASAQCIHXFm/96983Vzs8lyikgEjM/aj2mbeqWr7CoweBYMfJQCAiBCALIgIWxQKBtCDQ8tXFZ96qmvtRrej4XRJllYcmTF996syFtKCD+wQChYZAQmUBnkQoNCLB3lQjcPps84Tpq8sqD7kIgpr6ls+qT4x7aeXBo02pBgs3DwSSjUBCZUGyQYN1QAAIqAgcPNo07qWVq7adcFIGm/ae/V2mYvPOI+qZ2AYCQCBJCEAWJKk2YAsQKGQEtu5p+O201Zv2nrUqg+11zX+cXVn22Z5Cvj/YDgTSgsAB+onobn0+oBiRNSgWCACBSBFYsmbvH2dXbq9T34v84vtfvLJwS6SXRuFAAAgUBAKQBQVRTTASCISGwCsLt7z4/hdywODvy/c+PbeyueWr0K6BgoAAEChYBCALCrbqYDgQ8IVAc8tXT8+tfGfZXqYMPtnUMD6z+kTTeV+F4SQgAASKDQHIgmKrUdwPEMiKwKkzF8ZnVn+yqaFyZ9O4l1ftO3wq6ynIAASAQEoQ8CkL8JbDlPADt1msCOw/fOq301Y9Nm11VfXhYr1H3BcQAAI+EIAs8AEaTgECxYDAxh2H/2f17mK4E9wDEEgZAkl8EgHRgpSRELcLBIAAEAACiUAgoe8tSIgsOIgPEAACQAAIAIE8IZAXmQBZ4Ab7pEmTvo4PEAACQAAIAIHYEdi1a5db/xTZMcgCN2gnTZr0wAMPuOXAMSAABIAAEAACYSPQpk0byAITqE1NTZWVlZs2bTLtjX0DsiB2yHFBIAAEgAAQaIUsSCgJIAsSWjEwCwgAASBQ1AhAFiS0eiELEloxMAsIAAEgUNQI5FEWRI2rz/cWRG2Wx/IhCzwChWxAAAgAASAQIgKQBSGCGWZRkAVhoomygAAQAAJAwBsCkAXecIo9F2RB7JDjgkAACAABIJDPJYdRo+9zEuHChQsHDhyor6+P2j738iEL3PHBUSAABIAAEIgCAUQLVFQT8pZDyAK1YrANBIAAEAAC0SMAWaBiDFmgIoJtIAAEgAAQSA0C+ZUFlfTT3NwcBd4+JxEgC6KoDJQJBIAAEAACBYFAHmUBXn7sxhBMIrihg2NAAAgAASAQDQKQBSquiBaoiGAbCAABIAAEUoMAZIFa1ZAFKiLYBgJAAAgAgdQgAFmgVnURPKDYtH8fvlEgoHIlxdtRwIsym/bvSxunUOlRIBCQRZAFAQGM6vQgawvqVi7/ZOAv8A0XgbqVy6Oq7AIsFxwLl12stBRyrHzIwCiQTHOZFWMfCOhR8igLWltbF9DP+fPnA96F7ek+n0SwLSv+nQFlwZqhQ06OHIlvWAisGTokhS7bhfZ1K5eDY2Gxi5WTTo6VDxl4aPiwcJFMc2lfltxb6LLAxe0EP5R2WXBi5IgTI0eeoOIA6YA4pNNluzRCJgvAq4C8OklaqN5O08mx8iED64fdd3LkiBMjRuBvcAQgC1y8Vmtra9plAZHMo2jAAH8DI5BOl+3SwIxoQWBswVKGQDo5RqMF99Hx/Qj8DY4AZIGL14IsGMJHIWwsMoJuirQYo2C/wIRBISPD0mR/Ol22SwOTogVuuNF4lUDYwBP7re0xnRz7hEYLTowYcWJEKf1LwgZIcyhyxmQvJhFc3JbvaEFTU1NlZeWmTZtcC4/8YPC1BcTzjiKTCPgbHIF0umwXlnNZAHaFhkA6OYZJhOATB3IJiBa4eC3/0YIieG8Bc9nHyZylPpJDmsVOfOOQTpft0sDAMd9cOjFypO256eQYjRaU0PBAKf4GR2Bvya+w5NDFcflcW1A0ssAcJxjhMGLGfjbay4JDOl22S+vi0YIsuFlYh/yOfEsnx2i0ALIgNElUBLIgiQ8oFo0sOD5yBL5hIZBOl51VFoQFL8o5ntb1K0a0oHS4MVZGmqy0KD2ROw6FLgvwU0kuXrc1+NqC46PIyOz4KDI6QTogDoUoC3bsa3RjWLBj+iQCOBZe+0osxxpOnG04cTYYXxzPNmQB6wjxNxgCkAWOVKMH0j6JgBFYiAgk1mW7tIE/v1G5aecRlwxBDom1BSGCnPKiEsuxA0eaJs387My55iCEcTr3kyEDD9439ETp8OOlw/E3OAJ7hw6pGPtrJ7Q97s/jWw4RLXCro1CiBcdHjaBfEi3gX6T9YJJYl+3CoafmVo55btnuuhMueXwfEtEC8Oo4jcYFxyGxHNt/+NT9z5b/9e0NLV9d9E0YpxNJtOC+oSdGEE1A/rIvS8t/sd8bPntLhhT0ksOEygIn+sa8P7gsaBxJ+j/8DQWBxLpsF1o+Nbfyxfe/eOSllYcbz7hk83eIyYJQsAVLGQKJ5diBI03jXl719JsbZn241R9bXM6SogXDjhsxA6RZ7CRnHPYgWuDCNt/vLXAtM76DwWUBH76MCGs0k+ZyEuuyXRj5p7mVH288+sbHtY/PqDh15oJLTh+HEC0IvX0llmP7j5waP71iy75zj7/y2YKVu3ywxeUUNVogRwiQzh0BGi0o4EmE1tbWSvppbo5k0srn2gIXBsd5KKAs+Gzo4MaRJFRAviRmUCql87O/+scdtU69qu3sqf5xxwn/ye0c1Ktvp17VNM4hbNYz6Ofmwf7Phg4uuJ9KYrKgpr7lufe2/GlO5YXmr0IkcN3K5ZRjEfDqP3s68UTwwYnPS3tqmtZzqS1P/rMnOSTxqrp3R61nP1YmSTNySvwkjO3ZX78o2/+fPfQ9tBxyuZ79w2pfieUYkwU19S3rdzU9+tLKz744GCKRaLTg3uOlw44PH0b+sm+O6erbO0zo5+XcgTOu00jO4cOqe3Xo22ug03Wre3XQrrutul93TdPzk5z9upNTcrSN5v/5BE1Tzl3aXdN6/Nzf/brYsGfo4IJeWxAitWyLSrUsWDN0CPFWwb7UyWqePsw5jhpB3Kv6ob6YHWL9vcWq6gE9+zKXTQ8t7an17T3YMH4Acfa6/+UZ1IvYb3ecMTgoCMyMxI7kbKnPdj5FowU19S3b65r/NLfqpX9s/upiaHPD+iSCpSqNWvN7qHpwrwmaRjppuxJUgnHikesO7tWX0mDCALtKJyzSqciMpLKAduoO5LTLMHhGJ4OchiywMzVXKBLLsf2HT/0uU1FT31JT37Jy6/Exzy3fvveYC/FyOmTIAq4JTvCE3mXyTZf9pBfXOsy4Z9jxe25jHJD8Admvd/OlRBY8rgsI3lXblc/zEymgl1w6rLpf975MJZBTfv64dA1r0pApVE9oWveP+IXYfS3tocsCl/tSEGCb7vkhC9zpl2pZoI/k2NiI/C0lTkqMhHJLDyKu8Me0nw5QjhotMNuge1hW/qBefbWOMwYxm/sTof3jQTnbT7oBKgsC2CxwS+xIzqUNCFlQU9+yZd+537+65vWybS75czpkRAvM9Zgbx3hHbvWqdnt66GN9ckXCDV0+6vVLOmwy+hfdv1LvYj9hl9uHSFJ6Lo8WkGtx9pZS8aHzypAFyrV8YZJYjsmyoKa+5cO19WOfX37gSFNOhHHKTGRBya9Ihzf8viB/SS+rdV9KZAHVB3ppP5+gdZgx8D7ezYtoAb3WQKIh+t7OYgamq/P8FquM+IG3/PS+iG3daWBAukc9WiDtCYgAQw+ywIlpbH/KZUEI0QI+3CEds/0IzNMgifprOz9sLrP/BGkwV927ox4wGNBTjhNwk+yGg4oxQhYo+31tfjZ0SPBJhLqjTYtW747t+9i0VR9vPMoGeSQCXHt63MurFn+2x73ZeDxKZUFgjhFZ4C2iQ3LqY30eTDIN3GkUwchgE2wQsoATwC4YoPNKjZP17E8y8wCGONGQBbzMHPhpOSUnjh1sOB0bkeb9s3r8dD1awOj05ie7f/vyqmMnz3lki0s2a7SAjYlz//vzCdd1X9qPywJ9aE5lgTlaYBrH3zOwunQYlRR2Hkrsu+62aj7WX9qjw4R+A4+X/nyC1n0p32nICLJn4IzrjEM0pzahHwlOZPvIZ/E5EX4Jj4BAFriQzf9vIjQ2Ni5YsGDJkiXupUd9NPjagmMjS4+NKqV/RwRK07H79EGlx0YFKmc7XVuwnVg14hgdsY3/z9Jjo/qPz9ZWpOM9lkg2LCFzCx2nD3a4xwEkSCfnD2J/KCO5yu2HJsz4bM5HtbF91+08JWRBTX3Lqm0nxkxdvnZrfXD2smhBIF6NLD1GZcH0wYwPHWWOLaETSUb5JGePJZTP5NCPBx0bNWh6J238AMpJUtcdSTk658khrWc/xn/KE4lEvJztdG0By0PSnXptN7cXwtie/VmZEnsNvpGSyVXEdQO1kZw4tnHH4d9Nr4iNSG9/ulcmUk19y0sfbJ3y2tqz54OuC/tkyN0kWjD8vsbh94XwlwQAaHjg9g5a9583DufRgtvpWoHhLFqQ/VrVen63nEu700gDtdyUn807DNTPJYeoScrdkWgBsTCMu5bQ23Pv4Ioxhb3kMLh3cinBZ7SgOF5+/NnQwcfocCSEv2SY5fyhk7tersI9LxmQ0f6A+PRGIgvIeDF7CXy8yHMOriZnkUgG+fTsz/fT8keNEMFkdf8oD9ey5MnJZTuRsnL7oWfmbVTca8ybH288+tBzy4LPDeuyICyOiZUBpG8mNajLApvySZCAM4cEsY7RsNB0uohEquvBRBnw0o7RGQe2toDkcaY0i1Gxcqhu0HllYi+3SkQLpOv6YRdpEaNG5MSxjTsOP/1mVczkkS+3/WDzn96o+uu8oC8z4JMIpHc8Xurr7z239SWjeXquPolwH+mMe/z8uJAFbAkhXVswoR89yvzGdbdV2163X3ey5NDdHn6t48PFJMV9x7ny4PfCggREqfA9+j1Kkwi+7trBNkQLnNwv2w9ZQKMFo+gIhvxl3xE84XU/GRKxgRRxXqZyjNES208GbXYfOqLijpVel/Tx2vgBLFpAR/ykBLV8fjm6Xx8v2uchhesF8nJEtMBss6lM/ZB9mbI9OblsJ14mQRbU1Le8t2Lf2OeX7z9yyslOL/u5LDDxwR+2Ms6CJFwWWMtnQYLSY6P6jdc6Th9ApiGmD+5nE3Pq1Gu6Tt0RNLOmR49GlR4b0IMpBm6wzhl60UHCHmIMkZvEBmEYP2UEC1f07W3kp4eyc0mUr+TPiWMbdxx5+s0Ncj8df3rLvnMTX10ze3GgBSs0WjCEjqRLGsmotyTn9MCBM8gTA92XDi85rkYL+tK1BSV0NP/v1bzPbhxOrsWH+HbXJbLg36sle+ignzm3W5by/XzEL8pXy6SX6EADGOp9iXNzvl96dSesCj1akNDXGRVTtIA6oBHHRpOxiM3X03466qJjcWs5VBb0t93ft/dgZb+eeRS1h/TxNOrLDWP9up2mIPtIrJjnNBLu9tO5ZDKJIL7u+UU2kZDy5+SynbrVhMiCZVsaH31x5b7DocgCCV473AzwWb2LPFJi+09YAF8uirCu709IxMvyJeElMl9goZDCN+PE0SyioJOLcMk1WiDKMTjZqdeS3h21ziSSYRQ7ihpp4bmRQeKPsdMZh5w4lgRZUFPf8re/b561KNA7jsQkAokWBPiyXlaRBUa0wDyJwC7EZcF95FzTp8OM20mIf6nVHjJBIO1nQQVDYQyccR0NDLATmUZhyx0GqnenG2y9RLA9RBbg5cdOLtj364yKRhY0jCpl32M80UDHPTnuJ+OwPr0H2Z5b1pMcspRPhnGZwWSMJV1rUKaTVM7gXn1s8sj5Sxt47GH8APN+Xqy5fJGHjCaJwXq0QOxX7Mltf04u24mTSZAF63aceuTFlWFNIkj1mxuect1tHzxomxTsoWUStvSlrGOXkPIrgQHCNJ6HHGJsOTaKlKD17Md4W9ZTG9+TrTWh5OzNogWqzYLPZWLejJbQMKqUWNip17ZRhJac8/rlJNvi41jeJxFq6lsyC7eHMYlw98GhQ8jwfVhJCH8H/jsbmpMuv3vfxmE0WnC3GM3fTd9boF+LyoJ/rxbXJefespRZIqdl2/rdook80n69KGkPuZc7bul7+92Nd1OT7iZ3t/QWk/owbRBrQ0Bgz72DCnptAaIFTt0H2R/CkkMiAlhIM8BfPdpvWwLpgKUgqp5HhF757APbT5YW0kE/tUof6jlZSJeM0YlhKdBqa4NRAh/bsSCEiPpmOctj+WHJgj/Orvxkc0Ns381fnpNjyxv3nHls2uo1IS45DIVjOktlhshp5xrUWWTwUJp6kEvoP17rsYRECOgSVDKJILp9k2fWNBOfBZOPjRpB0p16bSdak815jSAzEVpPsgoyeCujJeTEsY07jkyevS42Ii3f0igTqaa+5Z1P9/5h1prgv5/EJxFoj0hi+yXH6V8a588hzXTAcS4L6Fi8b+NwZRKBywJ6CaMvZ9cVUoDYoJ+o2qPLgr4eHivoMGMgtZ+bdHx4CbdKvS9mvHotXzhAFrh1q76jBUXzJIIYyQVK8CG76j75tjyUpxfSQwU0bUQI6NjdGNiJTWNYxgvM8p+P3sRNsYGmxkMapv1seMejC+KQj0ROLtuJl9VfHnv27Q2xfcc+v1x+QPGL/ecnzVq7uCLEBxQH+0BSPkXUXZZK54dZ1MoogcecCItoXctjen1wzwb6Pfux6FEZIwNdW0CG/qNKWYSAlSmn9QgB5xs3VXCYRiO0HnqBsXNs5/7jsRHpT3MrlQcUF62tf2zaqsZToTygSKMFw0oahw3lXz9pMhC/pQ8fmt814zqNjNSH9SFrC+4eShXAv1UPI/sn3KGXr8uCYUOX3v5v1cOG0nNvWaqbQQXEHcwkyZ47aLRAz2Ps5+Vb8g8rabz730gA4+6hjcNotOCWPvQ2jXMbh9Fght1+Dgg512N6z6/uQbTAyQP7f0DRpcQ4DwWPFpDw6egRUf7lQVTpKku+R6cVRo/gbpQ8JFA2qnTJ9+i6RZGTjrTKHC0cNL2zXo6T/Ub53+tvm0efsRZXdLyWJ5RCkQVx8qe1tVV+nVF1XfNTc9e/Hmx1mGw/W3Joi3xQ1tEAFQnUO9XdkF59qFAY35usUCHTVXfSSMDoEbTv1/kmSljyPbLHyGNiAmEaWfpqdy3CMc4uql/ptWhOwi726dRru925PpBJLMeU1xkt39L4yIsrwnud0d0HS+gkwvChLEJApxKktKf9tL/vx0IOQ2mQQJvQj3alRmDg36qH82jBMFK+LgvEvIAULSABf/L84d26STQ/SYvMbCjP9+uyQIzv+X5yykAqCwYS24h26d5XL1O6L3K63X4iBUSZUn6X/YgWyG7Kmvb5JIK1oLzsCUUWiHHVUYfRTLD9RmBAL4eM3vQPG9gdJcvFtfEDjElfZtJRIgtsRlrcHinMQC3n+9lkMB2o0dGheb8xVXyUjgLZ1LIAoWFUqUt+OZtIi/yJddku5BSyoLq+Zep7n4f+8uPPhg4W+AjEWML/folCmqb9TlpWQkvWq34r4zOPFjToNCuV+CaG9YQVxB5BuWwBMK1nP2Y/kQV6tGBQphMpUL8vWgKNkxFi9+k9yP/9Sg0zsRyTZcGampOPvhTC2hTB20+G3F03dEjjsKHH6BDc5186Ip9ORuSkHNLLkk8HsYeXf9d0Ei3Qr7Vdz8b3kEJItIDZQI5e92/bSRRBH+6T/TxacOyOW0Q5+hWvIyEHG/sl25bQkIY1D7nWLX2s+33sKfRoQWtr6wH6EQwJNwFZUNowmvaUEf0VTjlb+WSk1Zku1+I5rXuI0+dHG0YNytBogbRHPuohTXsX4riNMgOlE+uyXdqMkAUzF+94KpqfSjLXWiCEG0aTeL4+GcRq7U72vCvt4G3rkdQyFZfs3O+RBYYNo+nyQDPfyH5SWo8yczk05tSxT6eOmSE2LYXYw8sUd1r2PWLk+Dt5fiERzCWL/N4ZmFiOCVnA1qZUhPxTSWwSQcwg+ErccYtGe2UyjCY9Nw3ai4QxPcEmEfRLMPXQ9/a79Pg86b/5h8xH8OA/SfDJBSoLZlA9MUGfYiCl6dEC40LSXYhyhg3VZzos2cjp+iSCdKIlm26n6/4ikAUuPi34obTLgqN0kMTGMX7SWQdVvAWx/78boI+l1GuRcvSR1lbph5Rs8tO+nJfaY3FO9pvOJWWIMZxqD48Z5LQ/sS7bpZ2wX1B8d8WXE6L5YWUWLWAwshG533S/37Fa5xEgUzk6D234QOlk3a+HmtT6JeUQDaHvZ4Tp1Gsr2UODEJpeVMOoUkHU8ZTV3B5TrEKUz4IKPA8vn0e5vO9PLMfYLyhu3X/+iZlrPlgR+g8r3103dDAdzd/bOOzeY8Pu9ZGmo/D/d2zYvWybprEjAAAgAElEQVSp/4Q7eDl3fJdouDtEmf9vvMZiA/c2Dvvl9Os0Gg/QzyILTm//pWwD7cX/H9EZRHPQMoks0M+S7eSygF+X3AVPE1lw7fS7iQ3ETqfPLcR+uUx/acgCF5eItQWDyTAl/186fXBnEiwJZENiXbZLG3hqbmVm4fZxL6083HjGJZu/Q/ragmAE26bP0NNBvHtRZKxPx/SjS/lZxL+Ov7OUDd+dnG2fnwzSW4EeLSCBKPLp3GubekXCVfL5Xr+8NJzEcqzuaNNj01b/Zd7GmcFeUWDLNPIkApUFjbRT5ANi0kHyPSzNhtG2+/UYAOnFaf/NC6El0E59KZ8vII8X8pKrb/8uXQnoUj4pmcsFUtrSW5h0EGN63R4uC9T9xBKbaIF8F+SU6tuvpdECdb8ZARc7jetCFtjSTOxEtGA4HangbwgIJNZlC7pbE0/NrXzouWVfHjppPRR8D5MFR0eFgC1YyhBILMf2Hz51/7PlzwZ+z7Et68jagnsHH7vvXnxDQWB3gT+JYEuSEHf6lAVF8zqjo6NL8Q0LgcS6bJcG8/QblZ/vOuqSIcghXRaAY+EhkFiOHTjS9IfXQnhFgS3f6JLDwTzkzgLvVCLoQXi+h4Xl7yObNNhu/ov9HB/IAluaiZ1plwVHxEhudClLy3/JOA/7ybyyJxwS67IF3a2JnfuPW3eGtYfJAplR4JuMhkdeHR2lt82jo4YnlmMNJ842nDgbFnOUcmi0YNCx+36FbygI7P7VwIJ+b0FCn0RAtCCsEXYxlZNYl6042dg2ES0Ind7p5JguC4bdSzpF/A2MQKFHC/DyYzcfHvC9BRVDBx8ZNVz/juYJsYclsN8zDhVDB9etXO5WYSk7VrdyuYljMrXAK8+8MhrpqOHp5Ngng+8+cC+JFjTcN4T+JWEDpBto+MQHDoUeLYAscOtJQpAFdNbziP6XhspNe8jKgyOjsd8TDul02S4E1WUB+BNe+0onxzCJEMrcgSgEssDFa/l/QLE4JhH0kRwbt+FvYATS6bJdGpgRLQiM7RGUQBFIJ8dItOBX9xy7b0hDyRDyl8QMeJrtwf5ccNj9q7sLem1BQqMFTU1NlZWVmzZtcvGJMRwKI1ow/AiJB7Av0oFwSKfLduG5iBZwgpHIE9IUAZ84pJNjNFpwDx3skkmEY3QqAX99I4BogYvX8h8tcC80tqPBZcHhUcMPjx6Ov6EgkE6X7cJ2JgtCwRYsZQikk2M0WjCwoWRIQ8lg/A2OQO0QRAtc/FarzwcU3YqM8VgIsoCM3ti39LCRJloB+4+Mzg2HdLpsF77rssDgUm545op/GvKnk2PqJIIcMEc6dwQKfRLBxeeEcgiygEYLaP9HhiP4BkAgnS7bpR0KWQBehYVAOjnGowWDabQAf4MiUDvkroJeW+Dic0I5lHZZUDF0ML4hIoAHFOVmyWRBiPCiqNTKgs9+dQ++ISIAWSB7KiWdallQt3I5vqEjoDAszZuhY4sCGQJpIxXqPQoEArKoTZs2u3aF/FOZAU0K63SfsuDChQsHDhyor68Pyw5/5QRZW+DvijgLCAABIAAEgABkgcqBInhvgXpL2AYCQAAIAAEg4A0ByAIVJ8gCFRFsAwEgAASAQGoQyK8sqKSf5ubmKPD2OYkAWRBFZaBMIAAEgAAQKAgE8igLEvqWQ8iCgiAujAQCQAAIAIEoEIAsUFGFLFARwTYQAAJAAAikBgHIArWqIQtURLANBIAAEAACqUEAskCtajygqCKCbSAABIAAEEgNApAFCa1qvLcgoRUDs4AAEAACRY1AHmVBa2vrAvo5f/58FBj7fBIhClN8lBmbLPjqwvkYvj4QiMGqry5EwjwfN1vEpyS2HhNrWBGTIfitxVBr/oxMrGE+bie/ssCHwd5PgSzwhNWuf7xbdme/SL+7/vGuJ1PMmRJrmNlMbGVBoOaN1yNlV9md/b5csjiLEXaHE2uYnbHYpyOw9Jd3Rkqnpb+80x/WiTXMx+1AFvgALY5TYosW7PrHu5uf+sOZdZ9F9N381B98y4JkGhZH9RfRNWreeH3bs09HxK4z6z7b8MQE37IgmYYVUeWHfytLf3nnyRWfRkSnkys+DSILkmmYjzqALPABWhynxCwLzlVVRvQNKAsisupcVaVvw+Ko/iK6BpMF0dVjQFmQQMOKqPLDvxUmCyKqteCyIIGG+agDyAIVtKampsrKyk2bNqkH4t2GLGBhjIiaGWRBbHSGLIgN6jRcCLIghlqGLFBBTtt7CxLb+ybWMJUx2HZFALLAFR4czA0ByILc8PKVOydZcJp+fF0nDyf5XHIYnSxYt27dwYMHPSKBaAFkgUeqJDwbZEHCK6iwzIMsiKG+PMqC06dPr1q16p133rl48WKIViXxAcXoZMHBgwczmczChQu9iAPIAsiCEFtaHouCLMgj+MV3aciCGOo0qyw4c+bM6tWrZ8yYkclkduzYEaJJafyppEWLFmXoZ9GiRYcOHXJBE7IAssCFHgV0CLKggCor+aZCFsRQRy6ygAmCV155hXVkf//738MNFaRRFrBQBAM0k8ksWrTo8OHDttUMWQBZYEuMgtsJWVBwVZZkgyELYqgdW1nABMGrr74q+q9MJrNr165w7UmjLGhtbV28eLEMayaTWbx4sVUcQBZAFoTb3vJVGmRBvpAvyutCFsRQrYosUCIEov96910/76lztz+hssDd6OBHjx49KmCVE4sXLz5y5IgoH7IAskCQoaATkAUFXX1JMx6yIIYaEbLANkIguq3du3eHbkxhyIJDhw5Vmj8bNmywYrFz505zrsqdO3das23YsKGysnLevHkCWSUhxAFkAWSBlT+FuMeLLNj75O1a7yl79XdqLXmtt2b6jJzp8voKvM6oEFnh22bIAt/QeT+xTZs2GzduXLFihVhDoPRTmUzmvffeUwqcNWuWkm3z5s1KHttR8dGjR+VsrCdtbm6Wd4aV9vmAonL5zZs3K7c6a9YsJU9ra2tZWZmSbcmSJdZsVuCUs9jmRx99NHny5AceeMBaQuh7PPS+M5/QRi0zXoNIvPYTs9lbEZVDNq9K9P0yQQ+GLXmtNzds9ihTRyI2jM5Gtc23YaFXQXEX6EUWnKuqlJTBktd63/7aYr2+yP68yQKF3rkx37deKW4+BLw7yIKAAHo5vU2bNpWVlR988AHrj6ZPn27tpxYsWKAUZe3d/MkCpdhwN8ORBbt27WKPUYq/ixfb/C7L2rVrRQaWWLt2rfV+Fi9evGDBgjlz5lhRZntmzZq1bt2606dPJytaMHuUMphLhiyoPEfUAFcGhnDhCsBkNt/Js0EWWPkZxR6PssCIByye0k+q07zKAkowQ1lCFkRBkNzKhCzIDS9fucUkwv79+4U4sPZZX375pVz8wYMHD5g/TU1NcobW1tYLFy6Ys5CtCxcuKNmi2wxHFoRu3+nTp9njngrKr7322vr168WPTCdLFlRVLhup9XtyybKRYhiuJIzhneHfaQfsu/f1EC0gPf3eJ2/v9+QS5aL6JmRB6PTNvcAcZQGdQZDCA3mWBQGYj2hB7mTJfgZkQXaMAucQsoCVtG/fvvnz5ysdViaTef/99wNfKu4CEioLVq5cqeCrCAKGU9JkgdTv5jZmiloWSIap8QASSzCGeupR34bFTeQCv15WWcC1JlGWJC1pAlK5JHhAPw5V6bv3zWqYhVq5Md+3YQVe4dGaD1kQLb60dEUWsCvu27fvvffeUzqv/fv3x2BPiJdIoiw4deqUHCqYNWuWHCGQbz45soB7bRGrz805+u59s0UL6LCS9Be6YWRYaf049CX4qSSZbJGmvfW+M5/QHANOlu7ZpPB8975ZDQvIfN+GRVodhV44ZEEMNWgrC9h19+7dK4uDDz74IAZ7QrxEEmXBsmXLmNpyEQQMguTIAuqU5bVXCZEFrG8wDLOZTUC0IMT25LeorL0vJxiVBSI2YFZ4fC2LSRAwueC79/VsmE9B7Nswv0in4jzIghiq2UUWsKvL4qCuri4Gk8K6ROJkwcmTJ2fMmJFVELD7T6QsmPmE2VmbtpTYb+CVfdmiBR5kAbfBdrjpO4wRFkFTUo7n3pdHCxQx576qtKrSd+/r2bBRy6r8MN+3YSkhhr/bhCzwh1tOZ2WVBay0PXv2vPfeewsXLsyp8PxmTpwsWLVqVWVlpVhU6I5OImUB64kLJ1oAWeBOsliOeu59b39tsf7EqbHCgGgCLhccatN37+vZMEQLYiGKt4tAFnjDKVAuj7KAXWP37t2nT58OdL0YT06cLMjpMYzEygIyhW9M2BsxfNsReZAp/HCiBcrQU+paEC2IpzF67n1p7InHnPhKEdEl20wfxDyJkCvzfeuVeOqlQK8CWRBDxeUkC2KwJ8RLJE4W5HRvyZIFPJBLnbXsqRMiC5a8NnLKMrsnFYnBvKdRhAtkQU6E9J3ZkyyQ3lXABYH2xJP6MwguCwvORT2JEID5kAW+OeNyImSBCzhhHYIsCAvJkMtJkCxgnpH7R6Vzzbrpu/f1HC3QWJzZVgGw1y3YGunbsJBrutiL8yQLWBSHcEyTYlHGpBXZ7yDvfPe+2Q0LxnzfhhU7IwLdH2RBIPi8nQxZ4A2n2HMlRxYsG8knd5nXNq0zlDYcvLbv3teTLJDnCGwXsRvzHWoU2rdhsXOhsC+YvfeVZnZsBZz7Tt+9b1bDAjLft2GFXd8RWw9ZEDHApHjIghhA9nOJ5MgCd6ec9ajv3teTLAjQo/g2zE91pvicrL1vVgq5Z/Dd+ybWsBSTJfutQxZkxyhwDsiCwBBGU0ACZQGP0ts+rCUvODCNy333vt5kga0xPIbhEMBg3Yxvw6Kp8KIt1Uvvy18cxCvO+t856hODLPDHfN+GFS0VwrgxyIIwUMxSBmRBFoDydThxsiChawtMEsQ0rJw9ymk2GrIgTlZ7lAX6D1ssntJPVwDSc7DyVJElPuS79/ViGKGKX+b7NizO2im4a+UkC7iec/YSZjqdXPHp0l/e6Q+TrIa5a1/3dbVBDPNxO5AFPkCL45REyQLSuvg7hk1dr7lR2R7yPSj3Fi0Qr0C2DjAdF6lBFsTBYH4NL72vu8ckVZunaEEQ5kMWcAqE+T9r7yt5IUlZevBU56oqg/S+ng0z/W44tTb7m7+DGOYDfcgCH6DFcUqCZIEYdhsjOa/qO/r3FjhbIsx28Ai+9Uoc1V9E1/AiCyRXTirU5j3WDpUY7QOKgkK+mA9ZEAWLs/W+rrOKxtiBL6M28ypI75vNMOGpVBHgJaQRxDAftQBZ4AO0OE5JkCzQWw5pb0/Mdh6dO4znfPe+WaMFdCRnNHTHVNiGxVH9RXSNrLLAaz06rBTx3ftmNYyLFZ/M921YEVV++LfiuffVfwueV6Lold0SQXpfz4YROkm/Bc/Y5WZVwDCGjzqALPABWhynJEwWEDUgUVmQOO+vMxKWkIQX3S3chG+9Ekf1F9E1PPe+RlUmJVpABLF/5kMWRMFir72vsiLEdXmK8AlxyAL9OWq+Rlt66tvOweqNIohhPmoBssAHaHGckiRZQPSsZlK4woPnWxaYWzsdd/L2li0WDVkQB49bW73JAucoFKGeUafCg4uE797Xg2GBmO/bsHjqpUCv4k0WWIbgZkchyKMkgvS+3gyrPEcnpCyvZCX8d1l1GMQwHxUNWeADtDhOSY4s+N/lYE/MdpruzbcsYBEC/ms6LBzNRDdZxdZ7yrLFS5SWLzYhC+LgcS6ywMEtZuGY7943qywIyHzfhsVTLwV6FS+9L13BOmoZjfTYzi06jcuD9L5eDJMimqYVBsRxOcx1Mn8VxDAfFQ1Z4AO0OE5JjixgvHSI62Zx2TEtOVw8pd/IKa/1vv2JkbdrJEFdgcNUNGRBHPSVrpG196U1ksxogT4zZdeLZGc+ZIHEgtCSWXtfNjZQI0xJiRZIc1LCJDKtYL8EUjgryIKwCISfSvKEZNaVfcmXBXRwoIc06LsKLCFE83pjdkeIFnjiR+BM3mVB0qIFAZkPWRCYOzYFZJEF7JkR6Ze39J5V9MF2rkDPE8MDimbDaJDg9n7287NiopYkIAtsqOBrF2SBJ9gKWhYwQSAGc6SZ6UECNvp0m5OGLPDEj8CZIAsCQ4gCDASyyALW65t7X9LrJ0IWSKECaidzX2pgw064QBYYDAiWgizwhJ8vWaAvxSLB+shi9VkNk34d0bDHNOIk3sHxTTiQBZ74EThTNlngPn0gTw3bizzfg/JshunDNfP0mcG0rMz3bVhgyIu5gMKVBfICAn2mQ3eelFRYWxALbSELPMGctfcVETZ/Cd+9b2IN8wQrMnEEPPa+/tgV7euM7MZt3u2ELOAUCPO/d1nwGnk3q9PHfi4/yKA8i2EigMHGKtbRFNvvsMggiGE+0MeSQx+gxXFK0pYceveGSk7IgjjokuBrQBYkuHIKz7QsvW8wJRek902sYT7qGLLAB2hxnJIwWWB6nEbv+L1N18UoC6QArxgkWFU5dxy+DYuj+ovoGrnLAjKtYJoM4lWmKE626XtQ7ssw+1FmuIYVUeWHfyuJ7X0Ta5iPOoAs8AFaHKckVhYYy/ryLQv0+TldAYxaVmV5Zky8096uX4EsiIPHXt9bYFp3TWvWawccrywQepMnnKeEfRsWT70U6FW89b5khCApS31UQ3jlXF8BF/x7M8zEc0lNZpHCQcIYPioassAHaHGcUiCygDxdQz/2y8Hie28BeREelwXih20gC+KgapZrZB+US+9/5Z2tzX/Jy5t8q+/eN7thqpq0/vadyRLJy5P9vg3LAmi6D3vpfY2hi16DRrDTXRkE6X2zGaYsrVUcJmRBTLTGkkNPQGdd2cefoqGeeuRMOpIzvDZ9OJD3x6obJc7R96A8q2HkNaLstbh63IKbAVngqeZjypS9980ednJzmr573+yG6e/QNNhumxLPx0IWxECpbL1v5bmqmU/QkIAkDqiem02fS2JV6BAziFoW6NJWOC7DYboxPGAYw0elIFrgA7Q4TklmtEDXBGzC3vDmvD82WG6MoiKUBfy3kfgjZNwMyII4GOr1Gl56X9ahEgEq/LVrpEfugCOXBcbyFEowI7ZBBnz/a3PoYQyvyKYyXzZZICI6SmVl+WUNxqg4ZYHTgxK2dApimA+aQBb4AC2OU5IpC6R3ektvCLERvzHJAjIyoPKftiXIgjiYmes1vMsC4prpY1qkNhMkC0YxjumhAkMlGCSXZYpI+9YruSKcqvxZZAHlD60p09oUF/Um6ivgoDyLYfQHGvQu38ZhIloQE4sxieAJ6OyxehIDME/OKdECMTqPPVpAmrTxC6pcFogeRSRCNcwTrMjEEfAmC6i8k3tc17qTXbnv3teLYVIgWv+RZV0ciH+yzWaa+TaMI4f/Nghk632pVls85YknTb+RRl591lt+jYFJNAg6BRmUZzOMdPzSh62FEmZAFtjUdRS7IAs8oRpMFox6gnLdaXo12rUF1AuzeQ05WsD2EJNcuxbfsxueYEUmjoCX3lf3y0Th6Y5SeoVlVINyL4aZZUEWS0TvwhKQBZwCYf7P1vtS9TZyyl7JOfDOWFnlZ1ObUcsCNVpgzMNCFoRJEpeyIAtcwDEO5SALnhxFfqpY/O6AwWkW+7Vvdb5739wMY2sPiS8ggY0nRt7uolSY1/ZtmIEdUh4QyNr7MhnHfbfzf4dxue/eN6th5+jSgX5PTtGfdhOxXy43yWIIB6vwJIIHavjJklUWkErRP2IsLs14ysF8c3QnL5MIfF0UZIEfMvg4B7LAE2heel+9pSnre2VZIKfNjc137+vFMDGY44NLGqmjj0vosiACwzzBikwcAS+9r3mcTSvR9Ny5zcBOnBKlLBDOmiaelJ58ob/f7S49fRvGkcN/GwSyyQLLbJTujugMI1154FJrcUcLDFcpmGZP9SCG2YCYbReWHGZDKE/Hk7PkUB0S8aGS8MumdYgG0XV+RygLxOjNaPn66I1rcLeVa74NyxMjCvWyOcgC6rU1/juzYtinh14t1GIM9N37/v/tnV2wHkW579/Lc3FKObUvzsYL4eIUVqklcnFuzq4SSR30BiSF+2Jf7BKrrHPBKkuE49oeNxbE46p49t7yUcrOAeWExEXIlkJQ2YrRSpYhkPCRrEVcaDAEYwjmgxACAoaPkHXo7umenp6ej3femXl7Zn6rViXz9jvT8/Tvebqff/d8rELDhOg0T0ZEt0PKJTFfF7C7w4SGddXTrdhdJAtMWhX6wFYAMpys9QNfOE2SfYsMi8SuXslw1laRBa1Ez8oKqwWlQJeZlCeHvOjmfx3f6n8nyk3nbPC9Be/18zhhyIwSf4yfIrP2SQ4EyIJS8THxTqWyrwoiOwdbzlL6IHau9dUka/VFhkUjdeE1Djv32D2lsl6ZGHmfKyjKvtHDLNZfK9bj1aXi3WvSWZk5uGlZEMWwO5+J7mbNivAJr25UiAZWCypAa+OQcFYL7JGuwnbl7Du+Xom1SBk7KxvWhvt7dI6i7Due19KerZx9gzWsR86vvykFssDOuNHikzVjiUqs12MkJWaTssAb5/YSgmVn0ipkQY1hxGpBKZjBZt9gDSuFlZ00gWCzb7CGaXL87yFQIAtSCTWtI3NKWpcFXq3gKZzEMA/EoiJWC4oITen7gFYLjMROXjaw1k63bLg0U+pWnpSPLwuk9M5YiE6PBZUNm1JEdPW0hdk3sUpv3dgvrh2U8GbDqwXxGztkCJmX6CVe5pGOrkmubnTV063YjSxoATOyoAXIVU4RkCwQAty6GufebyUu3eVcFaucfYtlgXUDQVKxJD5l2VbZsCruHPAxhbLA5NT4RtHoLVWrVl+auGvM7GlvtCYLoqdd4vh3FIM7yats2ICDpbjphbJg+9XqvkJ7fV4MCPE0JvvppEkm5YWG2UGb2I7nXZl3RE5iWDHT1B7IghSSMAo6IQvkPC8zlFXoV86+pWSBnE2+Z4bJ/Yn7EG01k1pdrGxYGAHSGStKyIJotUk/ZaruGlNx5d5PnhhPpU8rZ98ShiWWBLR5RiIjC6YQhMXZV2TZVRseMm4Sck0pTjFeXb1evOUsYxVqkuxbbFjWX96Kjdly6CFXXKqAn8SwCk5CFlSA1sYh4csCscZrLfmmx+vGZYHMCokl6NHM9uQSQjxFQBa0Ebaec5TIvtFbqyNJJydPRueplaqcSGtOFogINz+Xzm24Ws84owUDZIHH3U0Xlc2+8sUSazaKv2W1eu2WcGRBzoiUNYRyy2GNQcUth6VgFk/KRUK1pHe8iBoL2+QcPS5v+uXHeuAWdzaIbSFTzNXfglGb1YJS8THxTsWyIPqbGjLGxCuDVm1YO2PSsdwQr63MmuE1JwvkMB1HkV4tMOEdf+Ud0CsbNjHyPldQIAviv88SDVnIggrRwGpBBWhtHBLOakFyOm4P1+o2Q9H9ciRw5exbqFfkkuDMBvE3UfSjycY68YxyU1c32nB/j85RShYYxxV5LZ2AK2ffYsOEII5zvysLxKpG5p223HLYUAgXyILE9EDc8xSaLIgjPb0VX00w0jPa4CJCXeHEakEpkoXZVw7EGasFcsXeWu91o7np1YLoBYuigyUH6OzLhyavVNYrpbCykyZQLvuqyJE5eGOUbuM0nOvN5mWBHL/tiwjqglSuVcgC7f+a/y+UBXppM9zVgugWh+RlzTjak+VqvEIW1BVGyIJSJEvLAj351hcRRHAbefvQ3OqM+wwqZ98yhmWvZCgprm329bTKhpXCyk6aQClZoO4IuXpmjX2zmM67OZeoJsm+hYbpS1RRFEUDtw517+BuROckhmly/O8hUEIWKIkZy4I1G0O55VDn/ngJKgoYEf/JiU1yyEIWeEKhUhGyoBS2MtlXLqXqqNWyIB4Bc2O6cvYtNEyO2toq1Yt0ItG25V3gqGxYKazspAkUZV/hI31HYTRc6oybWDzQPnVXpJpfLYhlgRSbKuTkdasMKaxMrWyYJsf/HgJlZIHMvuvfi6s1GyNxEMgth7HAtcdM9x5bN8K55dATB1WLkAWlyBVmXzHG2VLA3o4euUnm5qTOrZx9Sxkmz6WziPnzqdFYkJVIVHllw0phZSdNoEgW2INg9EjCm/GNY9E8L8eVlbNvOcPMxM4OKiVl5vLvqqlsmCbH/x4CJWSBcZn9pKsIs2igcCcPcQROMikvYZi5G1qeUSiDVRvEJbO8976oyJ/EMA/EoiJuOSwiNKXvw7nl0L7rSsRoLAuKJ0zN31uQtMHq8HItgYsIUwpf67Tlsq8cKD038VlDfFJuGqFQOfuWMyxtgAy56PKZ2M66t6ayYRY8Nl0Cxdk3HgSEelt99Yybd+MdYkEwefYtNiwV3kKmjEq9yhNZ4MZB1c+sFpQiVzgp19fDdBdSskCEeF7SNaN25Ul5oWFiTqkvyEUdzH6XWfSXcDONrGxYKazspAmUyb76Kr54pMVsq9tDzL9ZT7tUzr6FhumgshbDRMgln7uJVbLuIFq+VDZMk+N/D4HC7KvHK3vCkFRvU5IF2jARJ1GQy4tQ9rYZNp0NZIEnFCoVIQtKYSvOvnqYcyK15MfK2TdYw0phZSdNoDD7lgykrN0qZ99gDdPk+N9DoEgWqIX6pA6IZggzG9Ts3BF21vg2SfYtMCy6LibFineFSVxTGInLCr4XHU5imAdiUREXEYoITen7kC4iuNOgrAHaW44smFIEhXLaYLNvsIaF4rkg7SjIvlaO9w5H+YWTZN9gDavgRmRBBWhtHBKYLDBXWCO1a5Z2zUbWGm/TskAswTk3hGcvEtqDQmXD2nB/j84xbvYVS/fqyn32+rztxxZXC+y7Dou1cmXDeuT8+psSbPYN1rAKPkAWVIDWxiEBywLrUqvW5om/facL1dhdOfuWuohgMoe86Gs0SmLDEQ3avMqGteH+Hp1jDFkg11GNvjz0kLzPIMN9RhlUzr5jGKZjRt5t4F/mNfaYjcqG9cj59Z0OGgoAACAASURBVDelMPvqv6CY0m1yrBAezI6ohlcLkk8iREFlZlwpg3XU8YBijWHEvQWlYBZmX33jlUi1q9fOrRF3+ZlpUxTT05EF5jE2Z3nA+Wj1LjNkT/KIRCms7KQJlMu+8pG/hJqzPmSP45O8NajYsOhyr2WJb5MnEbSr2/i/UBbYdyLb/d08QmXf+pfYYXF3w7JAP38b3evgCaasWJrEsApeYbWgArQ2Dgl1tSD5Z5Me2nIofW92Mg1XnpQX6RX7ckZyAocsaCNCy56jOPsmAyZ1VahgOlV5Ul5sWHEgGX3smepVNqws2UHuVywL1PsJzAtYTXSZlUVTktqYJPsWG2apzDVrzWth4/B+bwKGLGg6qFktKEW4KPuq8c7ErrUOFnez1H2/Vn9rTBYow+JxOXrOJyXBs3paZcNKYWUnTaA4++ZcALK8aS4uODO8ytm32DAdxiK0TJqJw94jBWzbKhumyfG/h0Bx9hVe23LoIfnyIit+kpvJiYR2dKOy4L0okmORXDPIiPmswWoSwzwQi4pYLSgiNKXvw1stEN0qEbXlxsfK2beMXsm/UmiP0entyoZNKSK6etry2Vcs80YvopAyVP/NpLTv7JLK2XcMw/Sqr4j/cmE/ydWNrnq6FbsLZIGekSdGKpX1i9d+Gr2IsH6N/0ZaM+PKU5nIgrqCi9WCUiQLs6+ehUt9rXtdUnrLT2Y6paW3GrsrZ99Cw8QAfencdvOmML9tnhskJzSsFFZ20gTKZV95SUiEkLo2tGqDuD61+9BDc++9RjDnHrFJsu8Yhtk3NyALtGen8n+BLJCDj56XJxOtuRUpOUDZEnOS7Ftg2MYZ9aouqVfsC6DuUOoRNJPd9FDBTawWVIDWxiHhrRYkl902zm1YOzO6emaNPWL6+ltzskDplXhtOT1ei5U6ZEEb4ZpzjuLsK/Tcqg0PqbEy8pdHjGZEWhurBZGFIs3k3LBmJ5hJ9EoOTL4qyL62LEjOE+RbkDNHA+W7BmWBbZhvnHSCx/k4iWEVYgZZUAFaG4cELQtUAtb/xonZF+7NyQKn53hWd5EFbYRqwTmKZYEVNtZjL7E+yA+w5mSBZYw7pUt8rluvFAAd9tdjyAIVV/FswXoQwAo5exiZJPuOZ1jGvQVZoT6JYRXiBVlQAVobhwQrC8Q0To2Dur/lX+BvWBaYB9tmtmt74n6OLGgjVAvOUVIW6Bwcz+fUgoF3TTV28eLu5mSBfRa5HQVboUnqwMqGFQAd9tfls++htTPiRcLxsJC4PdnrxEmyb3nDRHj4rmjkPOY9iWEV4gVZUAFaG4cEKQvifiUiO+5vcrvtewvUGG1d2kiuGer5XJxm1GBt/q2sV9pwf4/OUVIWGL/oywfJ+1szpneTrNWPYZie26nJXEkLkQVNRHHJ7Lv60lXR7avWMKUnMNbjVMm4miT7ljRszcbd26+e2R7LgviWQ2RBEwHj1Mkthw4Q/8fCO/uiaVw661v9zYzp6Y3K2bfQMPdcaXtYLfD7vNXSctk3moi/J+a80zjX19ZoXjn7FhqmFzCspxOt85q/g5dlcGXDWnVP105WIvuqWNLzATNbuHROvmRF3M264VJrOmH5tAVZIF8Kt0XHc9mwn8SwCh5mtaACtDYOCWy1IHlPr9WRdHxn7tCeLBjHKt5y2EYQy3MUZt/CEMrfoXL2Ddaw1lzTxROVkAX6HgItCBK6TRWmJzly9Jgk+xYbJtecpDHmSYRYnURLUA0YVsHLyIIK0No4BFkw9moBsqCNwBz7HMFm32ANGxvxkA4ozr5jjgO26GxWFkzJsArRgSyoAK2NQ5AFpWSBvuir7yRw/o/FuN351XblZYw23N+jcxRnX3OdVV8Gem/mpCdVeik4e0htbrUgvoiQfHeCmNhlzOrsMKtsWI+cX39TkAX1M03ViCxIIQmjIGRZkHNrjD0sTph9y8oCa4BOGpZ5BXFCw8IIkM5YUSwLzO2rUhZoTSDv1s549s8Os8rZt5RhUo4k4kqsQq9afeko61kyY1tlwzrj2mkYiixogTqyoAXIVU4RkiwwV8Kcubj9MXNWV3lSXlYW2Fa426wWVIm9eo8pzL6JSbn24JqNqXfaW/rPpN6Gn0TYsuFSEdjxK4zE6pQKKtEp8pUBsqDeQFK1IQuaoOrUiSxwgITyMSRZ4N5OmJg8Za/uTjgpLysLrGyRNIzVgiCCuVAWRDle3QsWLw/ED255H/I2yqBy9i1hWHTzWrSAEd8ypnqEvI08NtjtJpUNC8JtoRqBLGjBM8iCFiBXOUVAskDf0Ksncv7/E7f7WlqB1YIq7u/RMSWyr5iOi/cfr52RsSWm44fWzqw2T5Hpew6MFLA3KmffYsOimx5E+hd/CTe20HSBVWuuXpV1n0Flw3rk/Pqbgiyon2mqRmRBCkkYBWHJAjMjt/4KmXXjlRw3N7qzJTV2Ny4LjG3y76xb67qsFgQRyoXZVwSS/d7M6DZS8dpK8/ogy61umFXOvoWGiVUKIwCiawfu2W2B4mxXNiwIt4VqBLKgBc8gC1qAXOUU4cmC1B0G8fLp9GSBtSzxpisLCkbwynqlijsHfExx9tW39bl/KTGarFtXE5LuVmm4cvYtaZg8i7RB/6Hn+FYDSyU7mmCSmx4GHCzFTUcWFDOaeA9kwcQIm6kgIFmQHItLLhKYUbJy9i28t8B7q1o8u9NbWRPNyoY14/De1lqYfeUVBO0t9X+0AiTkpniLrbUgZOLKbDQrC6I7HmbWiNUCLX+1GnjP8qxrZ8iChgIaWdAQWLtaZIFNI6DtAGWBSsPJcVAtIWQ+hjDJywQLZYFJDGJDrPfObFi7avXauTXZf0zZPgRZ0E64F8qCNxd1upUCNJ6LqwcXi1bvG5MFwiq9gBGtWIguIBbJEosHdlDZ25UNa8cvHT0LsqAFxyELWoBc5RSByQI5RCZndIlP2fO5ytm3rCxQ8zlpgH4SoVisTKJXqrhzwMcUy4KH1m+XE/EoouKLU/q6VVziuTBUOfsWGxavk+n36Zo3L5W4YlXZsAEHS3HTkQXFjCbeA1kwMcJmKghMFojhOJ7GWYuoejrlGa/VzKk5WRAtPls5Q8sCZUxBUqlsWDMO722t5bJv5Kw1V4uHEcR1H6n25AUgKUmzdWfl7FvOMBlLci1qe6wSdkcLBg9lhj0XERoKaGRBQ2DtapEFNo2AtoOSBeryQXyRPpIFWw6JB8lWiUle9qhdOfuWXS2wBuukLMgbslktaC3WC7OvlHeJF0/JoEqVZMRYo7LA3Peweu0Ws51YJ8t+qVFlw1pzTRdPhCxowWvIghYgVzlFOLJAjIbRiBxfSoglgr4enLVs0KYssK/sFm5XNqyKOwd8TKEsKPRU/g6Vs2+whg04WIqbjiwoZjTxHsiCiRE2U0E4siB/UC78tnL2rbBaUGiMvUNlw5pxeG9rDTb7BmtYb0OhjoYhC+qgWFAHsqAA0LS+RhYgC6YVe/WeN9jsG6xh9fLvWW3IghYciixoAXKVUyALkAVV4ia8Y4LNvsEaFp4PA7IIWdCCM5AFLUCucgpkAbKgStyEd0yw2TdYw8LzYUAWIQtacAayoAXIVU6BLEAWVImb8I4JNvsGa1h4PgzIImRBC85AFrQAucopkAXIgipxE94xwWbfYA0Lz4cBWYQsaMEZyIIWIFc5BbIAWVAlbsI7JtjsG6xh4fkwIIuQBS04A1nQAuQqp0AWIAuqxE14xwSbfYM1LDwfBmQRsqAFZyALWoBc5RTIAmRBlbgJ75hgs2+whoXnw4AsQha04AxkQQuQq5wCWYAsqBI34R0TbPYN1rDwfBiQRciCFpyBLGgBcpVTIAuQBVXiJrxjgs2+wRoWng8DsghZ0IIzkAUtQK5yCmQBsqBK3IR3TLDZN1jDwvNhQBYhC1pwBrKgBchVTtGmLNh13Zca/X3u/vsqIHju/vsatWrXdV+qZliFtgz5kP2bftC0H5/f8lAFwsEaVqEtwznkl3/3t42G0y//7m+rwQzWsArNQRZUgNbGIa3JghNLe1r4rYCsBatOLO2pYBiHjEUgWD8Ga9hYeIe2cwteq4Y0WMMqNAdZUAFaG4e0JgvaaAzngAAEIACBjhBAFgTqKGRBoI7BLAhAAAK9JoAsCNS9yIJAHYNZEIAABHpNAFkQqHuRBYE6BrMgAAEI9JoAsiBQ9yILAnUMZkEAAhDoNQFkQaDuRRYE6hjMggAEINBrAsiCQN2LLAjUMZgFAQhAoNcEkAWBuhdZEKhjMAsCEIBArwkgCwJ1L7IgUMdgFgQgAIFeE0AWBOpeZEGgjsEsCEAAAr0mgCwI1L3IgkAdg1kQgAAEek0AWRCoe5EFgToGsyAAAQj0mgCyIFD3fuMb3/gP/EAAAhCAAARaJ/Dcc88FmhonM2s02eFTPvooPxCAAAQgAIEpEZhyCmzm9N2WBc0woVYIQAACEIDAQAkgCwbqeJoNAQhAAAIQSBNAFqSZUAIBCEAAAhAYKAFkwUAdT7MHSODebftvvXcp53fd/XsHiIUmQwACNgFkgU2DbQj0mcC3Ny9+9/7fzv/qD97f//fz/dd+9+E+t5+2QQACJQggC0pAYhcI9ILAv2xe/OXii/uPnfH+Lh58A1nQCz/TCAhMRABZMBE+DoZAhwggCzrkLEyFwLQIIAumRZ7zQqBtAsiCtolzPgh0kACyoINOw2QIVCKALKiEjYMgMCwCyIJh+ZvWDpkAsmDI3qftEChJAFlQEhS7QaDzBJAFnXchDYBA8wSQBc0z5gwQCIMAsiAMP2AFBIImgCwI2j0YB4EaCSALaoRJVRDoKwFkQV89S7sg4BJAFrhE+AwBCKQIIAtSSCiAQE8JIAt66liaBYE6CSAL6qRJXRAImQCyIGTvYBsEAiGALAjEEZgBgcYJIAsaR8wJINB9AsiC7vuQFkCgHAFkQTlO7AWBQRNAFgza/TR+UASQBYNyN42FQDUCyIJq3DgKAt0jgCzons+wGAKtE0AWtI6cE0JgSgSQBVMCz2kh0CUCyIIueQtbITAJAWTBJPQ4FgIDIYAsGIijaSYEVpAFBAEEIFBIAFlQiIgdINATAsiCnjiSZkCgSQLIgibpUjcEQiKALAjJG9gCgUAJIAsCdQxmQaB2AsiC2pFSIQT6RwBZ0D+f0qJBE3j0N0e+ePNC1u8vF0/sP3bG+7t48I2so75488K9W/cPGiuNh8BgCCALBuNqGjoYAvdu2/+tu/c8c/Qdb/oft/D7//77W+9devfs2cHwo6EQGDQBZMGg3U/je0ng3bNnb7136faf7htXAaT3f+DRF264c9cbp9/pJSgaBQEIpAkgC9JMKIFA5wmcfuudG+7cdd/2Q+lMX75k296Ts/+64/jLb3QeBw2AAARKE0AWlEbFjhDoFIHjL7/xldt2bNt7srwOsPd8Yv+fv3Lbjt/98WSnGo2xEIDApASQBZMS5HgIBEtg//OnvnLbjif2/9nO92W2nz785vXf37V19/PBNg3DIACBhgggCxoCS7UQCILAwuLh67+/6zfPv1lGDah9njn6zj/ds7jh578LogEYAQEItEsAWdAub84GgdYJbHjod9+a3/PMkbIPJtz+k303bV488y6PHrTuKk4IgQAIIAsCcAImQKBJAmfePXvT5sXbHvhtmQWD+x5+/uvf2/naX95u0iLqhgAEwiWALAjXN1gGgboIvHH6na9/b+cPf13wYMK2vSe/ctuOoy+9Xtd5qQcCEOgcAWRB51yGwRCoQuDoS6//z+/u+NVS5lsO1aMHvzlwokrtHAMBCPSFALKgL56kHRAoIvC7P5687rsPP/b7V9NXE37zvHj04BeP/bGoDr6HAAR6TgBZ0HMH0zwI2AS2PH7oH+/Y6TyY8MzRd9bO77nzwaftPdmGAASGSQBZMEy/0+rhErjzwafXJh9MuP0n+/757t3vnHl3uFBoOQQgoAkgCzQJ/ofAMAi8c+bdf757t3kw4d7th752+6Ovvv7WMFpPKyEAgQICyIICQHwNgf4ReO0vb3/t9kd/uPDHXy2duPY7Dx9+8bX+tZEWQQAC1QggC6px4ygIdJvACy++du13Hv7izQuLv3+x2y3BeghAoFYCyIJacVIZBLpD4KlnX/z3nQe7Yy+WQgACbRBAFrRBmXNAAAIQgAAEOkGg/7LgySefXJA/R48eVS45fPiwKnnqqaeMk1TJwsLC6dOnVeHy8rIqPHgwmlGdOHFClTz22GPmwB07dqjCU6dOqcJnn31WlTzzzDOq5LXXXlMlCwsL5sDJDfvjH6OnzI1hu3btMvVPbtixY8dUbYbY0tKSqd+0KE2spGGvvPKKqs0Q27dvnyrJJ1bSMGNqjiu9xMoY9utf/9rUn+NKLzFzYI5hJWMsTaykYQR/LTFG8Hc9+E1nZMMQ6L8suPDCC0fy56677lLNvuWWW1TJJz/5SVXy8ssvq5LRaGREwBVXXKEKb7zxRrXb/fffr0rOP/98Q/D973+/KjQp/5prrlEln//859Vui4uLqmQ0ioGnDbv55pvVbsawU6dOmQPThq1Zs8Yx7Lzzzssx7Etf+pJj2NLSkqnfHGgM27Bhgyo0hl188cWqxGvYZz7zGVWbMeyBBx5QJV7DTAIzhl111VWqfq9hH/vYx1RtxjDjSq9hRp0Yw4wrvYa9733vU/Ubw4wrSxqWjjFjmB1jxrB0jBnD7BgzhqVjzBhWMsYMMRNjtmHpGDPECH7jSoLfHsdMr+xi8JtBjw2bQJyl7FK2IQABCEAAAhAYIAFkwQCdTpMhAAEIDJrA/Pz88vLyoBFkN77nsmB5eXl+fj67+XwDAQhAAAKDI/DpT3968+bNg2t2uQb3XBbcc889n/70p8uhYC8IQAACEBgEgU996lPIgixP91wWbN68GVmQ5XvKIQABCAyTwOzs7NatW4fZ9sJW91wWbN26dXZ2tpACO0AAAhCAAAQgsLKy0nNZgI8hAAEIQAACEChPAFlQnhV7QgACEIAABHpOAFnQcwfTPAhAAAIQcAhwy6EDxP7Yc1nAkwi2s9mGAAQgAIGVlRVkQU4YIAty4PAVBCAAAQj0kACyIMepyIIcOHwFAQhAAAIQGBaBnsuC48eP7927d1gupbUQgAAEIACBqgR6LguqYuE4CEAAAhCAwBAJIAuG6HXaDAEIQGDIBHjLYY73ey4LeMthju/5CgIQgMAwCfCnknL83nNZwAOKOb7nKwhAAALDJMCTCDl+77ks4E8l5fieryAAAQgMk8D8/Pzy8vIw217Y6p7LguXl5fn5+UIK7AABCEAAAhCAAH8qiRiAAAQgUBuBN19+mt/aCbz95+dq8xAVlSDQ89WCEgTYBQIQgEA9BI4/dt2zd/81vzUS2L/xnCZkwd69e48fP16P13tXS89lQROvM3rz5N5jj87wWy+BE3tu6GLnqhcCtSkCXYwEZfPxx647sf1/rBzZzW9dBBqSBTyJkNPLei4LmngS4c2Tew9s+sCJ7TP81kXg+Na/76gs2L/xP9UFgXoUgUM//ZucASvwr5AFdakBU09DsoAnEXK6Us9lQRNPIihZYKKWjckJdFoWvH3gJ5MToAZF4LWlm5EFBINNoCFZwOuMhisLmlstsAOX7QkJIAsmBNibw5EFvXFlXQ1pSBbkJEW+6vlqQRMOZrWgrg5v6kEWGBQD30AWDDwA0s1HFjSRxfLrRBbk8/F8iyxId90JS5AFEwLszeHIgt64sq6GIAs8SajhImTB2ICRBXV1eFMPssCgGPgGsmDgAZBufkOygFsOczJfz2UB9xaku1mAJciCAJ0yFZOQBVPBHvJJkQU5+buhr5AFY4NltaD2QQRZUDvSjlaILOio45ozG1kwdoqa+ICeywIeUGyuu9ZYM7KgRpidrgpZ0Gn3NWF8Q7KAtxzmiIeey4KG3nJ4YNMHmugAg60TWTBY1zsNRxY4QPjYkCzISYp81XNZ0ISDuYhQ+1CFLKgdaUcrRBZ01HHNmY0saCKL5deJLMjn4/kWWVD7EIAsqB1pRytEFnTUcc2Z3ZAsmJ+fX15e9ozvFK2s9FwWLC8vz8/P1+toZEHtQwCyoHakHa0QWRCo4/bMXTma2Zn8E1BH1626ct2Wpg1uSBbwp5Jy0mLPZQEPKDbdaWupH1lQC8YeVDIwWbBl0+WrNu3Rf27xwZnR5XNHdep1k66VmOOvROFo7kFdgzrW7Cm/Hfl+3EOO7F5Jnj2OpT1zV14+d1TVKbZn5i731ThSDVk/F23YJnkL7R3ythuSBby3YLiyoNknEVSHkV3x6LpV6b6S7nvxbrPrV0zv1QNB3BVNndYwkfx2y6bLR5FUf3AmferRqOBbc4hlpKgz/iiqndl5ZP2czwbRELvcQuFvV25jByQLbFBH1s9ZY/rO2ZFGKsrNj/CI18Wz65MhIcfWrMH9yO449kbmRJHHd87qaDGhGHnfjNfr5+LJon+U91Riaiu9MTBZoJyyatODIrvHP7Jn7Zy1FIN0n5ma75y1+umR3VbkSH+ZvpYINuNKsX/czWPXWENKXLh75YjULsLCmU3J5YFYndj7e07qDxhP9Nr16O2GZAEXEYYrC7Zu3To7O5vT/gpfxRcRrA6Q7iG674nOFv/YQ7npvboDpPpJIm2kvhXd24wUzrexPck8IXKDZYM2Uo8mVqY3lcdVaTs9X0UoVGPdxUZhW25jBygLEkk6jo/RKDnZihz04IzttRWV4y0/Wt6XksL3Vez6OG6VLNhydI9MLfqoeM/4vJEsEBkoaaE5tYkKU1JhY2iyYEUm9StnZ+Il+sg7tjRctWmPva5gb8fJXtGWDoriaW6dnOgL9SkVhu6DcVAlAs/7QfRlMQIIC1ddKdc2/KGrgyd2ujid5ydryIoP1OOMKmlIFlQY+YdzSM8vIjThSCkL/tpJ9t6u4khyd9zUvdT0B7tLe/qTKpLdL5HOk71I1Rbncu9E06rdGJmoU9hmJiv2gkFS5RiToiEgOsRtqZIFluYwTVYbw5AFNrpVc7OrRrNzag05HqZnZ5w1WOurxNqAztx2nZZTnU1JXh8iJZr2hazfykCz6z1BKHaO9lHREldlxV4ifqxyx9f5H4clC4zqcjKoWrSXPtJULR85zrU/qtycGFi0JhB9cMtRORpEXT45YfD5xVoiSgwIkRaJBxnl7sRQM7MzVp+xDe4hJeIEWdBEFsuvE1mQz8fz7ZirBbGcd5NloveK3fQQEB/i9lU9jpg903LEDNzxJQadA9KzTFOPmM3rYUimK3uwibeNhrANE6udD0aHy3I1B02uWsd12FuRjBiGLJBu1Zx1Zt2yaXZu0+xITOzEmB4NoLZbBfPEgKsBiv0j1LY73G09+uszRrJgk5j3qx/f6o41Xh9dt2ruQStDqAmuuNesRK5SicqqzTUv+dWwZIEC6FxPlBEivKP7o9vpHpwpmHDHA0vstTgfmwSvAyM58gif6vrl4WL/+OfKdXP2Fa74C+tyWBRpOtRNVKvxR1eePcolQ6IhWcDrjDy5TRf1XBY0+zoj3YGvXLfFHsdNV3H68ziywOqcjsCX46xJ53FvF30pThJxudX5c2RBdCFTtminuk9CD+g+s00TxYZsppMhUpkmaYbMDfEcYqCyIEHRfBBSyfjXbKhsGqf25NApr9GYC8b+ReZEiGql6DpXVOu4UiUJZ1nCrCSZwT2OPZP4M611jLc+DkwWKNpyYm38L+78mJmbnZm7fGanuq5v7kkUoBxHmMMsj0SJ3CpJ3ppgHBQNCFZGj8MsFgfCxTJ4Up3acpypU+ypoiupJ4yhgcgCnkTQGsDzf89lQZNPIkT908n9pntEG955nuki1kZUT9SX3B6olnZNjzLZIjHWy9pUPQlZYJ0lvSn312ON6M9bNl0u7i1K7xkpgHgSIMYLY4nbcGfI0Osc8W6ipVEzBygLYg4OqGjot8d0N09r19j7RL6QI3K2LJhdHweGPK/8aM//5E2m2i/jTO88J/VpDiMj/BvDkwUWh2QfET1rXdxHooDZM3elWF6KH1gQ5bHm1h1ZejA9OOjIGYlbVeRQEw0pyU6tziXGnEg+qmqj3uqtVtUTX4FS9UeHxxMAJ/xye0FEpqHVAp5E8MgBXYQs0CRK/2/uLdB39MjbteIOl9gyiTy6t8h+zNfKi6J7yF6q+6E1WFhpQ3ZI0TlNMk52M9F7PbIg6pyizqN7Es8Zm3qkebEWEScaa7UgHpii6WakcrTxSTtl66zmD1IWmBE8ETASu/3Vqk17EqOq9kuchmVU2BIh/io97BpH2IN70lmuChExbDlLTVjtwJZniderzUmRBQZF5oboOKvsVXoVDQKvmlHobqhqiFb1EtcRhL8SHkw4S/b6dXPiIYLZmTl7/InWAJLhpz5ZI4Y4bzy3EUOEPTgoq6KgkrIm+vbBGXGXIrKgdFoJakdkwdju8N5bYLq9GXZNidmwc7AoTPVeURj3QE93NZ3fVJU8nU8W6MQszZAjfnKgUebFMl8OMXbOsO0QBiQnFpElWhbIeuwUpfRNbJg6nfjXqmeossAFlRpwVYIvkAUSqVQSyrPeuBJSUpxOe1af2vKCDqpEgo8CTNepDjdxGHtTB0BcYolXuzB/e2irBcbjZsPiE/s9KrSWE/T+wu+uRNPOUkcpD5p/Pb5Ldka7Y8oapOyQ6xZiEVEuONljgto2NmjD9DwntavZ02qpGiX8/za0WjD2uD+kA3ouC5pwpVcW6CHVDLuqN8Tzb/u+m6g/JHuvr5MkBmh7h4zTiZOqbm/kQjRjs0Ztc6w0ybYw7pZx35aDe6InC7MTP+KMWs14Bx1RmzP/SKx87h6WLJDw5h6UiTwBUn5IiDaVGNzpuz5ILSToT3n/CxFgZEHCm+JOAnUNWy4sCxHpnk7sr52ePNYEjMwczkt1rDtd7NDN3x6aLDCd0dblakEoKonjwR0NRLdK3gEQsY0Hllg0uANCYrYQb1+tMQAAF2VJREFU7yZqsJSiOGrt/xJrDLrOnbPyCmNslYgBU3l0F4KRpwGvFjSRGnpTJ7JgbFf6ZIEYFtWIafcQewT0pEbd0+zdktvuQGC+NaNJzun0aC4TvyULokpUiUjnRhnoRHX5nLjrUPd8dynYGjXiewuS9dtWycFLz03twcia+gxDFkR4tXLyLPULVhq7dJMbAGYHTzgptkqfpUWYtVrgpHaVfqRVRoWYkNAjvhOrlu8iGZEwW8kFTwNNAGdtDEwW6PUA6TUVGKrvCKcIJ4qY0a4xVwrifqp2sLqwJB85S1cuA8PtksZf8tSJkLB8Hfd9q1D2aFeEmhpMiFouTlhilRtZmbfBasHYKWriA5AFYyNMywLRh9UD3zKhmh5iOoAceeOhNiq3eprZM7nhZgXzrZEFpsTZkP353+IFxmQuT4h6McTfIl/DECdvb8+PpibJqiJLkrJAm6fGr1TD5TiloCmzhyELnLFPD+7OAGvGa99lJscvWmGImmWMjaIMIUJL/lj6QKwWxG/Tk05RGiJ+6aGKt0TURekkGatxjkknFaP8xCFxRDnxmfVxWLJA9RrpLOFK7bUrL7dX10ROXXO1nHVE/kpT1Qs85rUTdhSlZIGCHwVMas/kww76XFYApBO/fIQ1Cu/0t56FUhMkJTYakgWzs7Nbt24de/QfxgE9lwWNveVQv85IXWkzg68ZZ/VYf+W6LXb+S4yGVk+T5Rl5QlcV/S/PpfOuk2lMbki/ik4PHHFtusP7eqavb+tzaVmg85Cqx6lf3dDuXvVMZrVYLgxVFrguMNgNqPSzr7EUEHruevMQeVxuO1Rlmsvn1Hts4ks5qtykBB23UtFGssDYIGt2glNYLneInShjOBEGaX2ciH/bTr09LFmgW12IZfo7WIOViVJz6bCCo8u3qCFZwAOKOQqn57KgyQcUdZrsUN8O1dRBygLix0MAWVA+Xw5kz4ZkAQ8oDlcWNPunkkLNsp0bL5AFnXNZQwYjCxoC291qG5IFvOVwuLJgeXl5fn4+p/0VvorvLUAW1EQAWdDdUbtey5EF9fLsQW0NyYIKI/9wDun5RYQmHIksqH2sQRbUjrSjFSILOuq45sxGFjSRxfLrRBbk8/F8iyyofQhAFtSOtKMVIgs66rjmzG5IFszPzy8vL3vGd4pWVnouC7iI0Fx3rbFmZEGNMDtdFbKg0+5rwviGZAFPIuTon57LAp5EaKKj1l4nsqB2pB2tEFnQUcc1Z3ZDsoAnEYYrC3gSobnuWmPNyIIaYXa6KmRBp93XhPENyQJeZzRcWdDY64w+0EQHGGydyILBut5pOLLAAcLHhmRBTlLkq55fRGjCwdxyWPtQhSyoHWlHK0QWdNRxzZmNLGgii+XXiSzI5+P5FllQ+xCALKgdaUcrRBZ01HHNmY0s8CShhouQBWMDRhbUPgQgC2pH2tEKkQUddVxzZjckC7jlMCfz9VwW8CRCc921xpqRBTXC7HRVyIJOu68J45EFOfm7oa+QBWODZbWg9s6PLKgdaUcr7IEseP4n/43fGgkgC8ZOURMfgCwYG6GSBW89ez+/dRHotCyoCwL1vPXs/V2XBa8+dy+/tRN4+8/PjT1Mc8AEBHouC44fP753794J+HgOffPk3v0/+Ct+6yVwYs8NHtbBF9ULgdr2/+CvDv30b4J3OwZCoM8Eei4L+uw62gYBCEAAAhComwCyoG6i1AcBCEAAAmET4C2HOf7puSxo4i2HOTT5CgIQgAAEwifAn0rK8VHPZUETDyjm0OQrCEAAAhAInwDvLcjxUc9lQRN/KimHJl9BAAIQgED4BObn55eXl8O3cyoW9lwWLC8vz8/PT4UsJ4UABCAAAQh0jkDPZUHn/IHBEIAABCAAgSkSQBZMET6nhgAEIACBKRDYu3fv8ePHp3DiLpyy57KgidcZdcGt2AgBCEAAApkEeBIhE83KSs9lAU8i5PieryAAAQgMkwBPIuT4veeygCcRcnzPVxCAAASGSYDXGeX4veeygNWCHN/zFQQgAAEIQMAh0HNZ4LSWjxCAAAQgAAEI5BBAFuTA4SsIQAACEIDAsAggC4blb1oLAQhAAALccpgTAz2XBdxbkON7voIABCAwTALIghy/Iwty4PAVBCAAAQj0kACyIMepPZcFPKCY43u+ggAEIDBMArzlMMfvPZcFvOUwx/d8BQEIQAACEHAI9FwWqNYuLS0tyJ8XXnhBlRw9elSVPPnkk4aIKllYWHjttddU4b59+1ThgQMHVMmpU6dUyY4dO8yBu3btUoUvvfSSKjx48KAqMX+78/Tp06pkYWHBHDiuYa+//ro61hj27LPPqpKGDDt8+LCqP59YGcMeeeQR03BD7MSJE6pwXGJpw3bv3m3qN6jTrkwTK2nY008/rerPd2Vlw0rGWJpYScMI/sljzDtcEPxmHKsc/Ole6R1gGwp+M26woQgMQhZcfPHFI/lz6623qmavX79elVx44YUmFFTJaDRaWlpShZ/73OdU4Ze//GVVsrCwoEre//73mwPPO+88VfjjH/9YFd5www2q5IorrlAlBw8eVCWj0ejUqVOq8BOf+IQqNIbdddddqsRr2FNPPaUONIZdc801qsRr2Ac/+EFVmzHsxhtvVCVew1555RXHsFtuuUWVpA07e/asqmo0GhnDrrrqKlWYNuycc85RVa2srBjDHnjgAVWYNuwPf/iDqd8YZlyZNuzjH/+4qso2zLgybdi2bdtU/bZhxpVpw1avXq3qtw0zrkwbZmLMGLaysmJalDbMxJgxzBtjOYZ5Y8wYZmLMGOaNMWOYiTFjmDfGDDETYwQ/wW9irGTwG2Ilg9/EmOmVkwS/GZfYUAQGIQtwNgQgAAEIQAACZQggC8pQYh8IQAACEIDAIAggCwbhZhoJAQhAAAIQKEMAWVCGEvtAAAIQgAAEBkEAWTAIN9NICKysrPxw2/6bf7iU8/uvP9oLKAhAYOAEkAUDDwCaPyAC3968eM+2g9t+c9L7+7Mnjl373YcHhIOmQgACPgLIAh8VyiDQRwL/snnxl4sv7j92xvu7ePANZEEf3U6bIDAeAWTBeLzYGwLdJYAs6K7vsBwCrRFAFrSGmhNBYMoEkAVTdgCnh0AXCCALuuAlbIRAHQSQBXVQpA4I9JwAsqDnDqZ5EDAEkAUGBRsQgEAWAWRBFhnKIdA3AsiCvnmU9kCgAQLIggagUiUEgiSALAjSLRgFgbAIIAvC8gfWQKA5AsiC5thSMwR6QwBZ0BtX0hAIFBBAFhQA4msIQGBlBVlAFEBgKASQBUPxNO2EwAQEkAUTwONQCHSKALKgU+7CWAhMhwCyYDrcOSsE2ieALGifOWeEQOcIIAs65zIMhkBFAsiCiuA4DAJDIoAsGJK3aeuwCSALhu1/Wg+BUgSQBaUwsRMEekAAWdADJ9IECDRNAFnQNGHqh0AoBJAFoXgCOyAQMAFkQcDOwTQI1EoAWVArTiqDQD8JIAv66VdaBYE0AWRBmgklEICAQwBZ4ADhIwR6SwBZ0FvX0jAI1EcAWVAfS2qCQNgEkAVh+wfrIBAEAWRBEG7ACAjUReBPJ17ff/iU9/ebG5741dKJ/cfOeH8XD77x5e9s9x64//CpPxx5tS4LqQcCEAiZALIgZO9gGwTGJnDwyKtfvHnh63c+9k/3LLm/m5Z2/PaUVxPsP3Zm76HT/2fTonvIPUv/e8OTX7x54fHfHh3bFA6AAAQ6SABZ0EGnYTIEcgk88btj/3jHzt88/2aWAihf/szRd7519+L92w/knpAvIQCB/hBAFvTHl7QEAobAAw8f+Nbdi88cfae8AvDuecdP9912396zZ8+amtmAAAT6TQBZ0G//0rqBEjh79uxt9+2946f7vMm+ZOGPdjz/jfWPv/n2mYFCpNkQGCQBZMEg3U6jB0DgzbfPfHPDE/fteL6kCHB227788lfXPfLSK6cHgIomQgACMQFkQcyCLQj0jMBLr5z+6rpHti+/7KT8wo+7D7z+D+seee5Pr/QMCM2BAAQKCSALChGxAwQ6TOC5P73y1f/76O4DrxdKAbPDb19464Y7H390+UiHm43pEIBAVQLIgqrkOA4CHSHw6PKRG+58/LcvvGUSf87G74+d+fbmp/5t6/6ONA4zIQCBmgkgC2oGSnUQCJDAvdv2f3vzU7/PeJGRrRI2bjlw671L7/LoQYBexCQItEIAWdAKZk4CgakSePfs2VvvXdq45YCtANLbP3vi2A137jr91jtTNZaTQwAC0ySALJgmfc4NgdYInH7rnW+sf/xnTxxLqwFV8ui+V7+67pHjL7/RmkmcCAIQCJAAsiBAp2ASBBohcPzlN7667pFH972aVgZPHfzL127fuf/5U42cmEohAIHuEEAWdMdXWAqBiQnsf/7U127f+dTBv9jKYN+Rt7+54cmtew5PXD0VQAACnSeALOi8C2kABMYisLB4+Jsbntx35G2jDL7zo+UNP//dWJWwMwQg0FcCyIK+epZ2QSCTwKYtz3znR8tKFmzedvCmzYtn3uWvHmTi4gsIDIoAsmBQ7qaxEIgI3LR5cfO2g79aOvH17+164zSPHhAYEIBARABZQChAYIgE3jj99o13Pnbddx8+8tLrQ2w/bYYABDIIIAsywFAMgb4TOPrS68vPvdT3VtI+CEBgPALIgvF4sTcEIAABCECgxwSQBT12Lk2DAAQgAAEIjEcAWTAeL/aGAAQgAAEI9JgAsqDHzqVpEIAABCAAgfEIIAvG4zWEvffxAwEI9I7AEMYu2lgLAWRBLRh7VclFH/nQfz7nP/ILAQj0hsBNN93Uq0GKxjRJAFnQJN1u1n3RRz7048/9l5M3XsQvBCDQAwJ//18/gCzo5mA8HauRBdPhHvJZkQU9yAQ0AQKGALIg5PE2QNuQBQE6ZcomIQvMeMoGBHpAAFkw5SG1a6dHFnTNY83biyzoQSagCRAwBJAFzY+avToDsqBX7qylMcgCM56yAYEeEEAW1DIwDqcSZMFwfF22pciCHmQCmgABQwBZUHbsYz9JAFlAILgEkAVmPGUDAj0ggCxwxzg+5xJAFuTiGeSXyIIeZAKaAAFDAFkwyIG8eqORBdXZ9fVIZIEZT9mAQA8IIAv6OlY31C5kQUNgO1wtsqAHmYAmQMAQQBZ0eDiehunIgmlQD/ucyAIznrIBgR4QQBaEPeIGZx2yIDiXTN0gZEEPMoHVhAuuH51zx7W8ynq4BJAFUx9Uu2UAsqBb/mrDWmSBlVMbySW/uGQ0+vD5++y/OnHt+ZeNzv2FXZK1/YVzR6PR6JILShtZThbIaq//QtzefZ89Z+Qx6aN3fHh02Wc/WvrscYXuIV8414WQ1WTKJyOALGhj3OzROZAFPXJmTU1BFrgJbLJB2a1NKADP9N2jFdLnFceOLvvwOSNfDeJESjQI4VDwEymAsvsbyZKQBVI6eE5ky4u4+dJ4tbfYAVmQ9m8zJciCmobGoVSDLBiKp8u3E1kQZ7L6h+lSaVXmzrR0uOD6kZ6pi3RuUnX2jFzYX261QLdUZPq8pYiU/e7OYodIFlg6QLTIWSBBFmjmTcabiA1kQfnRjz1XVlaQBYSBSwBZ0OAwncyFIgc7yVKlivSKgkyxiVl4hjLImsHbk/pEPcnkJBYt3EwfyQ7xlfVz2Wc/mnWudP0etZFE0SDzZAMHeCJkgTvG8TmXALIgF88gv0QWNJU57GSfkdS9p5bZ17c2YFeYmfzyVwvE5L7wx0rz46wWWCYhC7yebacQWTDIgbx6o5EF1dn19UhkQUODdXJuHV0jcKbgJkNHmVguElx2ybmXmS+cjQ+fe/2HzfxeXGUo/ePTGeKKg74EYCV1C0hKFvjOZ8mIaKUBWWAxzL/oU/+3yIK+jtUNtQtZ0BDYDleLLGh0BJfiIH3fgC8ZlF9RSO0p1UbiLEqUFDxEULz8EMmCfZ895/ovXORJ9jeKHZQsyFI8PiFhlI2Pg1+gsGdZAsiCDg/H0zAdWTAN6mGfE1nQnCwQmTK+mUBk0Owf72y+RCYQEsH7Iyrcd639bOE4qwvRDQeRzQXyIpXIPQKCewtSlBoKPGRB2CNucNYhC4JzydQNQhY0NDo7Tw+6K+1ipu6TAvI6gjfPR4UZdwielBN3sY/Z4QvnxttuTlL5XhugLl647yewNUGRpDAnlSf6xSX6GQpzXmSBQdHwBrJg6oNqtwxAFnTLX21YiyxoShb4Rn+5ti+TsZYFbgYV5YnLAbZ5nln4jRedjJSEOSq5LJFM2CdvvCha7XfLdeLX5b+45Jw7rhVV+ZYK8m9sFKdwj0IW+OLBdm5d28iCNsbNHp0DWdAjZ9bUFGRBXcNxiXqsW/y0LJBJ3WR0leOtj8lckpYF3iv6iZRs1gzM5QZxXUPke2sBQ6f/SGGM9GsSdLk0wzp7viywmmnsRxYYFA1vIAtqGhqHUg2yYCieLt9OZEGJdF7iGn/WWG+S8SUXiLRqbjUwsuDG5K18onwMWZA2Pj1Tl/N+pwlOXk+kf6tOu1xsayWhlxaiCxv6YoSCkLojUlSILMiKkLrLkQXlRz/25HVGxICHALLAyoJO7pzooxAB9pV+5/2Didx5wfXmPoNKskCsGcSL/2oB387obkOS90JepO5LSKwxRLnKqiTSN0qyOKrCql+uN2j1YJUjC+pO/1lxiyzwDHMUZRNgtSCbzVC/QRZkDa/NlItEq358adjcKBDt4/lPp39lXnQR4cPn77v2o/KvMZk5/Uf3yTsDRs6bCWTaTv2RBSv9J7KXKdfXBaQ4uOyz5/v/TmP0rf34g1YGyIIEWI2lgUJkwVDH8ortRhZUBNfjw5AFzaT/quP+OKsF9qQ/WpwQOiK5pG9XKDWBT46Y9B+bHQkOcUXD+VZ8dH8uuUDd+ehZJ1CZD1nQgALwhi6yoMfDdRNNQxY0QbXbdSILvGMrhRDoKAFkQbdH5NatRxa0jjz4EyILOjr6YzYEvASQBcEPumEZiCwIyx8hWIMs8I6tFEKgowSQBSGMqx2yAVnQIWe1ZCqyoKOjP2ZDwEsAWdDS0NmX0yAL+uLJ+tqBLPCOrRRCoKMEkAX1jY6DqAlZMAg3j9VIZEFHR3/MhoCXALJgrAGQnZEFxIBLAFngHVsphEBHCSAL3DGOz7kEkAW5eAb5JbKgo6M/ZkPASwBZMMiBvHqjkQXV2fX1SGSBd2ylEAIdJYAs6OtY3VC7kAUNge1wtciCjo7+mA0BLwFkQYeH42mYjiyYBvWwz4ks8I6tFEKgowSQBWGPuMFZhywIziVTNwhZ0NHRH7Mh4CWALJj6oNotA5AF3fJXG9YiC7xjK4UQ6CgBZEEb42aPzoEs6JEza2rKRR/50H//yLn8QgACvSFw00031TQ8UE3/CSAL+u/jcVu4mR8IQKB3BMYdB9h/sASQBYN1PQ2HAAQgAAEIuASQBS4RPkMAAhCAAAQGSwBZMFjX03AIQAACEICASwBZ4BLhMwQgAAEIQGCwBJAFg3U9DYcABCAAAQi4BJAFLhE+QwACEIAABAZLAFkwWNfTcAhAAAIQgIBLAFngEuEzBCAAAQhAYLAEkAWDdT0NhwAEIAABCLgEkAUuET5DAAIQgAAEBksAWTBY19NwCEAAAhCAgEsAWeAS4TMEIAABCEBgsASQBYN1PQ2HAAQgAAEIuASQBS4RPkMAAhCAAAQGSwBZMFjX03AIQAACEICASwBZ4BLhMwQgAAEIQGCwBJAFg3U9DYcABCAAAQi4BJAFLhE+QwACEIAABAZLAFkwWNfTcAhAAAIQgIBLAFngEuEzBCAAAQhAYLAEkAWDdT0NhwAEIAABCLgEkAUuET5DAAIQgAAEBksAWTBY19NwCEAAAhCAgEsAWeAS4TMEIAABCEBgsASQBYN1PQ2HAAQgAAEIuASQBS4RPkMAAhCAAAQGSwBZMFjX03AIQAACEICASwBZ4BLhMwQgAAEIQGCwBJAFg3U9DYcABCAAAQi4BJAFLhE+QwACEIAABAZL4P8DOL7U8XuRxcEAAAAASUVORK5CYII=;" vertex="1" parent="1">
          <mxGeometry x="-800" y="53" width="690" height="763" as="geometry" />
        </mxCell>
      </root>
    </mxGraphModel>
  </diagram>
</mxfile>
